<svg xmlns="http://www.w3.org/2000/svg" fill="none" viewBox="0 0 188 81"><path fill="#4D4D4D" fill-rule="evenodd" d="M.307 25.57v-2.156l2.914-.462V3.081L.307 2.619V.385h9.969c2.3 0 4.218.54 5.905 1.618 1.687 1.078 2.99 2.541 3.91 4.39.921 1.848 1.381 3.928 1.381 6.315v.54c0 2.387-.46 4.467-1.303 6.315-.92 1.849-2.224 3.312-3.835 4.39-1.687 1.079-3.604 1.618-5.828 1.618H.306Zm6.288-2.618h3.68c1.611 0 2.992-.462 4.142-1.31a8.88 8.88 0 0 0 2.684-3.542c.614-1.463.92-3.08.92-4.852v-.54c0-1.848-.306-3.465-.92-4.929-.613-1.463-1.534-2.619-2.684-3.466-1.15-.847-2.53-1.232-4.141-1.232H6.595v19.871Zm15.797 2.619v-2.157l2.915-.462V3.081l-2.915-.462V.385h18.865V6.47h-2.76l-.384-3.466h-9.356v8.241h9.356v2.696h-9.356v9.088h9.893l.383-3.466h2.761v6.008H22.392Zm30.445.385c-1.534 0-3.067-.231-4.524-.693a15.642 15.642 0 0 1-4.065-2.08v-5.391h2.684l.537 4.005c.767.462 1.61.77 2.454 1.078.92.231 1.84.385 2.914.385 1.15 0 2.147-.23 2.914-.539.844-.385 1.457-.847 1.917-1.463a4.154 4.154 0 0 0 .614-2.157c0-.77-.153-1.463-.537-2.08-.383-.616-.997-1.078-1.84-1.54-.844-.462-2.071-.847-3.528-1.155-1.764-.385-3.22-.924-4.448-1.618-1.15-.693-2.07-1.54-2.684-2.464-.69-1.001-.997-2.08-.997-3.312 0-1.31.384-2.465 1.074-3.543.69-1.001 1.687-1.849 2.99-2.465C49.54.308 50.998 0 52.685 0c1.764 0 3.374.308 4.754.847 1.304.54 2.454 1.156 3.374 1.926v5.083H58.13l-.614-3.62c-.46-.462-1.15-.77-1.917-1.078-.767-.231-1.764-.385-2.914-.385-.997 0-1.84.154-2.608.539-.767.308-1.303.77-1.763 1.386a3.954 3.954 0 0 0-.614 2.157c0 .77.23 1.386.614 1.925.383.54.996 1.002 1.84 1.387.844.462 1.994.847 3.451 1.155 2.684.693 4.678 1.695 6.058 2.927 1.38 1.31 2.07 2.927 2.07 4.775 0 1.386-.383 2.542-1.073 3.62-.767 1.001-1.764 1.849-3.144 2.465-1.304.539-2.914.847-4.678.847Zm10.276-.385v-2.157l2.838-.462V3.081l-2.838-.462V.385H73.082c2.224 0 4.218.54 5.905 1.618 1.61 1.078 2.914 2.541 3.911 4.39.92 1.848 1.38 3.928 1.38 6.315v.54c0 2.387-.46 4.467-1.38 6.315-.92 1.849-2.147 3.312-3.834 4.39-1.61 1.079-3.528 1.618-5.828 1.618H63.113Zm6.288-2.619h3.681c1.61 0 2.991-.462 4.142-1.31a8.879 8.879 0 0 0 2.683-3.542c.614-1.463.92-3.08.92-4.852v-.54c0-1.848-.306-3.465-.92-4.929-.613-1.463-1.533-2.619-2.683-3.466s-2.531-1.232-4.142-1.232h-3.68v19.871ZM85.2 25.571v-2.157l2.837-.462V3.081L85.2 2.619V.385h18.865V6.47h-2.761l-.383-3.466h-9.433v8.241h9.356v2.696h-9.356v9.088h9.97l.383-3.466h2.761v6.008H85.199Zm30.368 0v-2.31l8.359-9.166c.997-1.079 1.764-2.003 2.3-2.85.614-.77.997-1.463 1.227-2.08.23-.616.307-1.309.307-2.002 0-1.232-.383-2.31-1.15-3.158-.767-.847-1.917-1.31-3.298-1.31-1.533 0-2.684.463-3.527 1.387-.767.847-1.227 2.08-1.227 3.774h-3.298v-.154c-.077-1.463.23-2.773.92-3.928a6.056 6.056 0 0 1 2.838-2.696C120.245.385 121.702 0 123.389 0c1.61 0 2.991.308 4.218.924 1.15.616 1.994 1.464 2.684 2.465.613 1.078.92 2.31.92 3.62 0 .924-.23 1.848-.537 2.773-.383.924-.92 1.848-1.61 2.85-.767.924-1.611 1.925-2.531 3.003l-6.748 7.24.076.077h9.049l.23-2.927h2.915v5.546h-16.488Zm26.687.385c-2.454 0-4.448-.847-5.905-2.542-1.457-1.771-2.147-4.236-2.147-7.394v-6.007c0-3.235.69-5.7 2.147-7.394C137.806.924 139.723 0 142.254 0s4.448.924 5.905 2.619c1.457 1.694 2.224 4.159 2.224 7.394v6.007c0 3.158-.767 5.623-2.148 7.394-1.457 1.695-3.45 2.542-5.981 2.542Zm0-2.696c1.534 0 2.684-.539 3.451-1.617.843-1.155 1.227-2.773 1.227-4.93V9.32c0-2.234-.384-3.852-1.227-4.93-.767-1.155-1.917-1.694-3.451-1.694s-2.684.539-3.451 1.694c-.767 1.078-1.227 2.696-1.227 4.93v7.393c0 2.157.46 3.775 1.227 4.93.844 1.078 1.994 1.617 3.451 1.617Zm18.865 2.696c-2.531 0-4.525-.847-5.982-2.542-1.457-1.771-2.147-4.236-2.147-7.394v-6.007c0-3.235.69-5.7 2.147-7.394C156.594.924 158.588 0 161.042 0c2.531 0 4.525.924 5.982 2.619 1.38 1.694 2.147 4.159 2.147 7.394v6.007c0 3.158-.69 5.623-2.147 7.394-1.457 1.695-3.451 2.542-5.905 2.542Zm0-2.696c1.457 0 2.684-.539 3.451-1.617.767-1.155 1.15-2.773 1.15-4.93V9.32c0-2.234-.383-3.852-1.15-4.93-.844-1.155-1.994-1.694-3.528-1.694s-2.607.539-3.451 1.694c-.767 1.078-1.15 2.696-1.15 4.93v7.393c0 2.157.383 3.775 1.15 4.93.844 1.078 1.994 1.617 3.528 1.617Zm18.405 2.696c-1.611 0-3.068-.308-4.295-.847-1.303-.54-2.224-1.31-2.914-2.388-.69-1.078-1.073-2.387-1.073-3.928 0-1.463.46-2.696 1.303-3.774.844-1.078 2.071-1.848 3.528-2.388-1.304-.462-2.301-1.232-2.991-2.233-.767-.924-1.074-2.08-1.074-3.39 0-1.54.307-2.772.921-3.773.613-1.078 1.533-1.849 2.607-2.388C176.686.308 177.99 0 179.524 0c1.457 0 2.837.308 3.911.847 1.15.54 2.07 1.31 2.684 2.388.69 1.001.997 2.233.997 3.774 0 1.31-.384 2.465-1.151 3.389-.69 1.001-1.687 1.771-2.99 2.233 1.457.54 2.607 1.31 3.527 2.388.844 1.078 1.304 2.31 1.304 3.774 0 1.54-.307 2.85-1.074 3.928-.69 1.078-1.61 1.849-2.837 2.388-1.304.539-2.684.847-4.371.847Zm0-2.696c.997 0 1.84-.154 2.53-.539.767-.385 1.304-.847 1.764-1.54.384-.693.614-1.54.614-2.465 0-.924-.23-1.771-.691-2.465a4.456 4.456 0 0 0-1.687-1.694 5.58 5.58 0 0 0-2.53-.616c-.921 0-1.764.23-2.531.616-.69.385-1.227 1.001-1.687 1.694a5.103 5.103 0 0 0-.614 2.465c0 1.386.461 2.542 1.304 3.389.92.77 2.071 1.155 3.528 1.155Zm0-12.015c.843 0 1.533-.154 2.147-.462.613-.385 1.15-.847 1.457-1.54.383-.617.537-1.31.537-2.234 0-.77-.154-1.54-.537-2.157-.383-.693-.844-1.232-1.457-1.54a4.11 4.11 0 0 0-2.147-.616c-1.227 0-2.224.385-2.991 1.232-.69.77-1.074 1.849-1.074 3.08 0 1.31.384 2.312 1.074 3.082.767.77 1.764 1.155 2.991 1.155ZM7.439 48.523c-1.687 0-3.068-.385-4.141-1.155-1.074-.693-1.918-1.695-2.454-2.927C.307 43.209 0 41.745 0 40.128v-.231c0-1.618.307-3.004.844-4.313.613-1.233 1.457-2.234 2.53-2.927 1.074-.693 2.378-1.078 3.835-1.078 1.073 0 2.07.154 2.914.462.843.385 1.61.77 2.224 1.309v3.543h-1.84l-.231-2.619a6.732 6.732 0 0 0-.767-.462c-.307-.154-.69-.23-1.073-.308-.384-.077-.767-.077-1.227-.077-1.074 0-1.994.231-2.684.847a4.47 4.47 0 0 0-1.688 2.234 9.205 9.205 0 0 0-.613 3.389v.23c0 1.387.23 2.542.613 3.544.384 1.001.997 1.694 1.764 2.233.844.54 1.764.77 2.914.77.537 0 .997-.076 1.534-.153.46-.154.92-.309 1.227-.54l.23-2.31h1.764v3.62a6.383 6.383 0 0 1-2.224.847c-.844.231-1.764.385-2.607.385Zm12.73 0a6.68 6.68 0 0 1-2.838-.616c-.843-.462-1.534-1.001-2.147-1.771-.614-.694-1.074-1.618-1.38-2.62-.307-1-.46-2.156-.46-3.388v-.231c0-1.233.153-2.31.46-3.312a7.466 7.466 0 0 1 1.38-2.696c.614-.693 1.304-1.31 2.147-1.694a6.68 6.68 0 0 1 2.838-.617c1.15 0 2.07.232 2.914.617a5.855 5.855 0 0 1 2.147 1.694c.613.77.997 1.618 1.304 2.696.306 1.001.46 2.08.46 3.312v.23c0 1.233-.154 2.389-.46 3.39-.307 1.001-.69 1.925-1.304 2.618-.537.77-1.304 1.31-2.147 1.772-.844.385-1.764.616-2.914.616Zm0-1.848c1.073 0 1.994-.308 2.607-.848.69-.539 1.227-1.309 1.534-2.31.306-.925.46-2.08.46-3.39v-.23c0-1.31-.154-2.388-.46-3.39-.384-.923-.844-1.694-1.534-2.233-.69-.539-1.534-.847-2.607-.847-.997 0-1.84.308-2.531.847-.614.54-1.15 1.31-1.534 2.234-.306 1.001-.537 2.08-.537 3.389v.23c0 1.31.23 2.465.537 3.39.384 1.001.92 1.771 1.534 2.31.69.54 1.534.848 2.53.848Zm7.515 1.54v-1.386l1.84-.308V33.58l-1.84-.308V31.81h4.064L39.8 44.595h.077V33.581l-2.07-.308V31.81h5.904v1.463l-1.84.308v14.634h-1.994l-8.282-12.863h-.077v11.169l2.07.308v1.386h-5.904Zm20.859 0v-1.386l1.84-.308V33.504h-3.68l-.384 2.234h-1.61V31.81h13.573v3.928h-1.61l-.384-2.234h-3.68v13.017l1.84.308v1.386h-5.905Zm7.898 0v-1.386l1.227-.154L63.42 31.81h1.917l5.598 14.865 1.227.154v1.386h-4.678v-1.386l1.227-.231-1.073-3.004h-6.595l-1.074 3.004 1.227.23v1.387h-4.755Zm5.292-6.47h5.215l-2.454-6.7-.077-.386h-.077l-.153.386-2.454 6.7Zm11.043 6.47v-1.386l1.84-.308V33.58l-1.84-.308V31.81h7.132c1.687 0 2.99.385 3.987 1.078.92.77 1.457 1.848 1.457 3.389 0 .693-.23 1.386-.69 1.925-.46.617-1.073 1.002-1.84 1.31.69.154 1.227.385 1.687.77.46.385.843.924 1.073 1.463.307.54.384 1.156.384 1.849 0 1.54-.46 2.695-1.457 3.466-.92.77-2.3 1.155-3.911 1.155h-7.822Zm4.064-1.694h3.758c.997 0 1.764-.232 2.3-.77.614-.463.844-1.233.844-2.08 0-.693-.077-1.233-.307-1.695a1.82 1.82 0 0 0-.92-1.078 3.319 3.319 0 0 0-1.61-.385H76.84v6.008Zm0-7.703h3.605c.766 0 1.457-.23 1.917-.693.536-.462.767-1.155.767-1.925 0-.848-.307-1.54-.844-2.003-.537-.385-1.38-.616-2.377-.616H76.84v5.237Zm9.816 9.397v-1.386l1.84-.308V33.58l-1.84-.308V31.81h5.905v1.463l-1.84.308v12.94l1.84.308v1.386h-5.905Zm6.672 0v-1.386l1.84-.308V33.58l-1.84-.308V31.81h5.904v1.463l-1.84.308v12.94h5.752l.307-2.542h1.687v4.236h-11.81Zm12.576 0v-1.386l1.841-.308V33.58l-1.841-.308V31.81h5.905v1.463l-1.84.308v12.94l1.84.308v1.386h-5.905Zm6.749 0v-1.617l8.512-13.094H114.8l-.153 2.157h-1.841V31.81h10.967v1.617l-8.589 13.094h6.978l.153-2.311h1.764v4.005h-11.426Zm12.346 0v-1.386l1.227-.154 5.752-14.865h1.917l5.598 14.865 1.227.154v1.386h-4.754v-1.386l1.227-.231-1.074-3.004h-6.518l-1.151 3.004 1.227.23v1.387h-4.678Zm5.292-6.47h5.215l-2.454-6.7-.154-.386-.153.386-2.454 6.7Zm11.119 6.47v-1.386l1.764-.308V33.58l-1.764-.308V31.81h4.065l7.975 12.785h.077V33.581l-1.994-.308V31.81h5.905v1.463l-1.84.308v14.634h-2.071l-8.205-12.863h-.077v11.169l1.994.308v1.386h-5.829Zm16.795 0v-1.386l1.84-.308V33.58l-1.84-.308V31.81h6.442c1.457 0 2.684.308 3.757 1 1.074.694 1.917 1.695 2.531 2.928.613 1.155.92 2.541.92 4.082v.385c0 1.54-.307 2.927-.843 4.082-.614 1.232-1.457 2.234-2.531 2.927-.997.693-2.301 1.001-3.758 1.001h-6.518Zm4.064-1.694h2.378c.997 0 1.917-.309 2.684-.848.69-.616 1.303-1.309 1.687-2.31a8.28 8.28 0 0 0 .613-3.158v-.385c0-1.156-.23-2.234-.613-3.235-.384-.924-.997-1.618-1.687-2.234-.767-.539-1.687-.77-2.684-.77h-2.378v12.94Zm17.485 2.002a6.682 6.682 0 0 1-2.838-.616c-.843-.462-1.533-1.001-2.147-1.771-.613-.694-1.073-1.618-1.38-2.62-.307-1-.46-2.156-.46-3.388v-.231c0-1.233.153-2.31.46-3.312a7.477 7.477 0 0 1 1.38-2.696c.614-.693 1.304-1.31 2.147-1.694a6.684 6.684 0 0 1 2.838-.617c1.15 0 2.07.232 2.914.617a5.852 5.852 0 0 1 2.147 1.694c.614.77.997 1.618 1.304 2.696.307 1.001.46 2.08.46 3.312v.23c0 1.233-.153 2.389-.46 3.39-.307 1.001-.69 1.925-1.304 2.618-.537.77-1.303 1.31-2.147 1.772-.844.385-1.764.616-2.914.616Zm0-1.848c1.073 0 1.994-.308 2.607-.848.69-.539 1.227-1.309 1.534-2.31.307-.925.46-2.08.46-3.39v-.23c0-1.31-.153-2.388-.46-3.39-.383-.923-.844-1.694-1.534-2.233-.69-.539-1.534-.847-2.607-.847-.997 0-1.841.308-2.531.847-.69.54-1.15 1.31-1.534 2.234-.306 1.001-.536 2.08-.536 3.389v.23c0 1.31.23 2.465.536 3.39.384 1.001.844 1.771 1.534 2.31.69.54 1.534.848 2.531.848ZM10.66 76.944c-2.301 0-4.142-.54-5.675-1.54-1.534-1.002-2.684-2.388-3.451-4.16-.767-1.771-1.15-3.697-1.15-5.93v-.385c0-2.234.383-4.236 1.15-5.931.843-1.771 1.994-3.158 3.45-4.16 1.534-1 3.375-1.54 5.445-1.54 1.457 0 2.838.231 4.065.694 1.227.462 2.224 1.078 2.99 1.771v4.93h-2.453l-.307-3.62a4.06 4.06 0 0 0-1.15-.617c-.46-.23-.92-.308-1.457-.462-.537-.077-1.074-.077-1.688-.077-1.533 0-2.76.385-3.834 1.155-.997.77-1.84 1.772-2.377 3.158a14.699 14.699 0 0 0-.767 4.699v.385c0 1.925.307 3.543.843 4.93.614 1.308 1.38 2.387 2.531 3.08 1.074.693 2.377 1.078 3.988 1.078.69 0 1.457-.077 2.147-.308.69-.154 1.304-.385 1.764-.693l.307-3.158h2.454v5.006c-.92.54-1.918.925-3.145 1.233-1.15.308-2.377.462-3.68.462Zm17.79 0c-1.456 0-2.76-.308-3.91-.847-1.227-.616-2.224-1.387-2.991-2.465-.844-1.001-1.457-2.234-1.917-3.62-.46-1.463-.614-3.004-.614-4.698v-.385c0-1.695.154-3.235.614-4.622.46-1.463 1.073-2.695 1.917-3.697.767-1.078 1.764-1.848 2.99-2.464 1.151-.54 2.455-.848 3.912-.848 1.61 0 2.914.308 4.14.848 1.151.616 2.148 1.386 2.992 2.464.767 1.002 1.38 2.234 1.764 3.697.46 1.387.613 2.927.613 4.622v.385c0 1.694-.153 3.235-.614 4.698-.383 1.386-.996 2.619-1.763 3.62-.844 1.078-1.84 1.849-2.991 2.465-1.227.539-2.53.847-4.141.847Zm0-2.619c1.535 0 2.762-.385 3.682-1.155.92-.693 1.61-1.772 2.07-3.158.46-1.31.69-2.927.69-4.698v-.385c0-1.772-.23-3.39-.69-4.699-.46-1.386-1.15-2.387-2.07-3.157-.92-.77-2.147-1.156-3.681-1.156-1.38 0-2.53.385-3.451 1.155-.997.77-1.687 1.849-2.147 3.158-.537 1.387-.767 2.927-.767 4.699v.385c0 1.771.23 3.312.767 4.698.46 1.386 1.15 2.388 2.147 3.158.92.77 2.07 1.155 3.45 1.155Zm10.507 2.234v-1.926l2.53-.462v-18.1l-2.53-.462v-1.925h5.675l11.196 17.868.077-.077V56.071l-2.761-.462v-1.925h8.128v1.925l-2.53.462V76.56h-2.837L44.402 58.613h-.077V74.17l2.837.462v1.926h-8.205Zm41.64 3.928-5.52-4.082c-.537.154-1.074.308-1.611.385-.613.077-1.15.154-1.687.154-1.534 0-2.838-.308-3.988-.847-1.15-.616-2.147-1.387-2.99-2.465-.844-1.001-1.458-2.234-1.918-3.62a18.306 18.306 0 0 1-.613-4.698v-.385c0-1.695.23-3.235.613-4.622.46-1.463 1.074-2.695 1.917-3.697.844-1.078 1.84-1.848 2.991-2.464 1.15-.54 2.454-.848 3.988-.848 1.534 0 2.914.308 4.064.848 1.15.616 2.147 1.386 2.991 2.464.767 1.002 1.38 2.234 1.764 3.697.46 1.387.613 2.927.613 4.622v.385c0 2.08-.23 3.928-.69 5.545-.537 1.695-1.457 3.081-2.76 4.082l4.524 3.158-1.687 2.388Zm-8.818-6.162c1.457 0 2.684-.385 3.604-1.155.92-.693 1.61-1.772 2.07-3.158.46-1.31.69-2.927.69-4.698v-.385c0-1.772-.23-3.39-.69-4.699-.46-1.386-1.15-2.387-2.07-3.157-.92-.77-2.147-1.156-3.604-1.156-1.38 0-2.53.385-3.528 1.155-.92.77-1.687 1.849-2.147 3.158a14.7 14.7 0 0 0-.767 4.699v.385c0 1.771.23 3.312.767 4.698a6.807 6.807 0 0 0 2.147 3.158c.92.77 2.147 1.155 3.528 1.155Zm21.395 2.619c-1.61 0-2.99-.308-4.217-.924a7.051 7.051 0 0 1-2.914-2.696c-.69-1.155-1.074-2.542-1.074-4.16V56.072l-2.53-.462v-1.925h8.205v1.925l-2.608.462v13.094c0 1.155.23 2.156.69 2.927.384.77.998 1.386 1.764 1.771.767.385 1.688.54 2.684.54 1.074 0 1.994-.155 2.761-.54.767-.385 1.38-1.001 1.84-1.771.46-.77.69-1.772.69-2.927V56.07l-2.606-.462v-1.925h8.205v1.925l-2.531.462v13.094c0 1.694-.383 3.08-1.073 4.236-.69 1.155-1.61 2.002-2.914 2.619-1.227.616-2.684.924-4.372.924Zm11.81-.385v-1.926l2.608-.462v-18.1l-2.608-.462v-1.925h8.206v1.925l-2.531.462v18.1l2.531.462v1.926h-8.206Zm17.562.385c-1.381 0-2.685-.231-3.988-.616-1.304-.462-2.531-1.079-3.681-1.926V69.55h2.377l.537 3.543c.69.462 1.38.77 2.224 1.001a8.72 8.72 0 0 0 2.531.385c1.073 0 1.917-.23 2.684-.539.69-.308 1.303-.77 1.687-1.31.383-.538.536-1.232.536-2.002 0-.693-.153-1.31-.46-1.848-.383-.54-.92-1.002-1.687-1.387s-1.84-.77-3.144-1.078c-1.534-.385-2.914-.847-3.988-1.463-1.073-.617-1.917-1.387-2.454-2.234-.536-.924-.843-1.925-.843-3.004 0-1.232.307-2.31.92-3.235.69-.924 1.534-1.694 2.684-2.233 1.15-.54 2.454-.848 3.911-.848 1.611 0 3.068.231 4.295.77 1.227.463 2.224 1.079 2.99 1.772v4.544H127.3l-.537-3.234c-.46-.386-.997-.694-1.764-1.002-.69-.23-1.533-.308-2.607-.308-.843 0-1.61.154-2.3.462-.691.308-1.151.694-1.534 1.233-.384.616-.614 1.232-.614 2.002 0 .693.23 1.233.537 1.772.384.462.92.924 1.687 1.232.767.385 1.764.77 3.068 1.078 2.377.616 4.217 1.464 5.444 2.619 1.227 1.232 1.841 2.619 1.841 4.39 0 1.233-.307 2.31-.92 3.235-.69 1.001-1.611 1.695-2.838 2.234-1.15.539-2.607.847-4.217.847Zm14.877-.385v-1.926l2.53-.462V55.994h-5.138l-.46 3.158h-2.3v-5.468h18.941v5.468h-2.3l-.46-3.158h-5.138v18.177l2.53.462v1.926h-8.205Zm11.043 0v-1.926l1.687-.23 7.975-20.72h2.684l7.822 20.72 1.687.23v1.926h-6.518v-1.926l1.687-.308-1.534-4.236h-9.125l-1.534 4.236 1.687.308v1.926h-6.518Zm7.362-9.089h7.208l-3.374-9.32-.153-.538h-.077l-.23.539-3.374 9.32Zm23.619 9.474c-1.38 0-2.684-.231-3.988-.616-1.303-.462-2.53-1.079-3.681-1.926V69.55h2.378l.537 3.543c.69.462 1.457.77 2.223 1.001a9.15 9.15 0 0 0 2.531.385c1.074 0 1.994-.23 2.684-.539a3.704 3.704 0 0 0 1.687-1.31c.384-.538.537-1.232.537-2.002 0-.693-.153-1.31-.46-1.848-.307-.54-.92-1.002-1.687-1.387s-1.764-.77-3.144-1.078c-1.534-.385-2.838-.847-3.988-1.463-1.074-.617-1.84-1.387-2.454-2.234-.537-.924-.844-1.925-.844-3.004 0-1.232.384-2.31.997-3.235.614-.924 1.534-1.694 2.608-2.233 1.15-.54 2.454-.848 3.987-.848 1.611 0 2.991.231 4.218.77a10.733 10.733 0 0 1 3.068 1.772v4.544h-2.454l-.46-3.234c-.461-.386-1.074-.694-1.764-1.002-.69-.23-1.611-.308-2.608-.308-.92 0-1.687.154-2.3.462-.69.308-1.227.694-1.611 1.233-.383.616-.536 1.232-.536 2.002 0 .693.153 1.233.46 1.772.383.462.92.924 1.687 1.232.767.385 1.84.77 3.067 1.078 2.454.616 4.218 1.464 5.522 2.619 1.227 1.232 1.84 2.619 1.84 4.39 0 1.233-.306 2.31-.997 3.235-.69 1.001-1.61 1.695-2.76 2.234-1.227.539-2.608.847-4.295.847Z" clip-rule="evenodd"/></svg>