<svg xmlns="http://www.w3.org/2000/svg" fill="none" viewBox="0 0 35 35"><path fill="#fff" fill-rule="evenodd" d="m31 10.45-9.383 7.05L31 24.55v-14.1Zm-.469 15.197c-.261.218-.61.353-.992.353H4.461c-.38 0-.728-.134-.988-.35l9.883-7.425 1.51 1.134c.594.447 1.372.669 2.146.665.774-.003 1.553-.23 2.151-.68l1.49-1.12 9.878 7.423ZM3 24.555l9.392-7.055L3 10.445v14.11ZM3.473 9.35c.26-.218.608-.35.988-.35h25.078c.383 0 .732.135.992.353l-10.265 7.713-.014.01-1.878 1.411c-.372.28-.867.42-1.365.423-.497.002-.988-.134-1.353-.407l-1.897-1.425-.017-.013L3.472 9.35Z" clip-rule="evenodd"/></svg>