<svg xmlns="http://www.w3.org/2000/svg" fill="none" viewBox="0 0 66 66"><g clip-path="url(#a)"><path fill="#F60" d="M33 66c18.225 0 33-14.775 33-33S51.225 0 33 0 0 14.775 0 33s14.775 33 33 33Z"/><mask id="b" width="37" height="40" x="15" y="13" maskUnits="userSpaceOnUse" style="mask-type:luminance"><path fill="#fff" d="M39.028 26.242c.31 0 .564.252.564.564v6.866A4.118 4.118 0 0 0 39 33.63h-4.625v-6.824c0-.312.254-.564.564-.564h4.089Zm2.596-4.933a.563.563 0 0 0-.565.564v12.3c.427.242.81.559 1.129.931.09.107 2.96-2.313 2.96-2.313l.496-.483c.197-.192.409-.367.632-.518l.002-9.917a.565.565 0 0 0-.564-.564h-4.09Zm-19.148 3.206a.56.56 0 0 0 .393-.16l5.676-5.513 7.77 2.678a.565.565 0 0 0 .545-.099l7.883-6.553v2.134a.563.563 0 1 0 1.128 0v-3.438a.563.563 0 0 0-.564-.564h-3.438a.563.563 0 1 0 0 1.129h2.001l-7.488 6.22-7.797-2.688a.557.557 0 0 0-.576.13l-5.927 5.754a.565.565 0 0 0 .394.97Zm5.779-1.195a.566.566 0 0 0-.564.564v8.55a6.672 6.672 0 0 1 1.743-.231c.79 0 1.574.143 2.348.427.378.139.755.312 1.128.52v-9.266a.563.563 0 0 0-.564-.564h-4.091Zm-6.12 12.873 2.096-1.909c.028-.026.058-.052.088-.074.256-.204.516-.393.776-.566.375-.25.752-.468 1.129-.653v-5.602a.563.563 0 0 0-.565-.564h-4.086a.563.563 0 0 0-.565.564v9.076s.21.39.395.395c.33.007.732-.667.732-.667Z"/><path fill="#fff" d="M19.143 37.43 30.25 48.539l-4.143 4.143L15 41.574l2.678-2.678.004-.005 1.461-1.46Zm32.162-4.564a2.323 2.323 0 0 0-1.642-.699 2.313 2.313 0 0 0-1.659.663l-5.862 5.733a3.215 3.215 0 0 1-2.752 1.558h-8.597a.6.6 0 0 1 0-1.201h8.597c.747 0 1.402-.412 1.749-1.02l.002-.004c.042-.075.08-.151.113-.23l.006-.018c.012-.028.022-.056.032-.085.006-.014.01-.028.014-.04.008-.022.015-.044.021-.067.006-.016.01-.034.014-.052.008-.032.016-.064.022-.097l.01-.056.01-.058.007-.055.006-.07.004-.045a2.015 2.015 0 0 0-2.009-2.13l-6.148-.006a.597.597 0 0 1-.369-.127c-2.406-1.874-4.814-1.807-7.36.204l-3.73 3.401 7.275 7.275 1.314-1.316a.612.612 0 0 1 .425-.177l10.939-.004c.925 0 1.698-.317 2.365-.968l7.17-7.012a2.313 2.313 0 0 0 .697-1.643 2.313 2.313 0 0 0-.664-1.654Z"/></mask><g fill="#fff" mask="url(#b)"><path d="M39.028 26.242c.31 0 .564.252.564.564v6.866A4.118 4.118 0 0 0 39 33.63h-4.625v-6.824c0-.312.254-.564.564-.564h4.089Zm2.596-4.933a.563.563 0 0 0-.565.564v12.3c.427.242.81.559 1.129.931.09.107 2.96-2.313 2.96-2.313l.496-.483c.197-.192.409-.367.632-.518l.002-9.917a.565.565 0 0 0-.564-.564h-4.09Zm-19.148 3.206a.56.56 0 0 0 .393-.16l5.676-5.513 7.77 2.678a.565.565 0 0 0 .545-.099l7.883-6.553v2.134a.563.563 0 1 0 1.128 0v-3.438a.563.563 0 0 0-.564-.564h-3.438a.563.563 0 1 0 0 1.129h2.001l-7.488 6.22-7.797-2.688a.557.557 0 0 0-.576.13l-5.927 5.754a.565.565 0 0 0 .394.97Zm5.779-1.195a.566.566 0 0 0-.564.564v8.55a6.672 6.672 0 0 1 1.743-.231c.79 0 1.574.143 2.348.427.378.139.755.312 1.128.52v-9.266a.563.563 0 0 0-.564-.564h-4.091Zm-6.12 12.873 2.096-1.909c.028-.026.058-.052.088-.074.256-.204.516-.393.776-.566.375-.25.752-.468 1.129-.653v-5.602a.563.563 0 0 0-.565-.564h-4.086a.563.563 0 0 0-.565.564v9.076s.21.39.395.395c.33.007.732-.667.732-.667Z"/><path d="M19.143 37.43 30.25 48.539l-4.143 4.143L15 41.574l2.678-2.678.004-.005 1.461-1.46Zm32.162-4.564a2.323 2.323 0 0 0-1.642-.699 2.313 2.313 0 0 0-1.659.663l-5.862 5.733a3.215 3.215 0 0 1-2.752 1.558h-8.597a.6.6 0 0 1 0-1.201h8.597c.747 0 1.402-.412 1.749-1.02l.002-.004c.042-.075.08-.151.113-.23l.006-.018c.012-.028.022-.056.032-.085.006-.014.01-.028.014-.04.008-.022.015-.044.021-.067.006-.016.01-.034.014-.052.008-.032.016-.064.022-.097l.01-.056.01-.058.007-.055.006-.07.004-.045a2.015 2.015 0 0 0-2.009-2.13l-6.148-.006a.597.597 0 0 1-.369-.127c-2.406-1.874-4.814-1.807-7.36.204l-3.73 3.401 7.275 7.275 1.314-1.316a.612.612 0 0 1 .425-.177l10.939-.004c.925 0 1.698-.317 2.365-.968l7.17-7.012a2.313 2.313 0 0 0 .697-1.643 2.313 2.313 0 0 0-.664-1.654Z"/></g></g><defs><clipPath id="a"><path fill="#fff" d="M0 0h66v66H0z"/></clipPath></defs></svg>