<svg xmlns="http://www.w3.org/2000/svg" fill="none" viewBox="0 0 66 66"><g clip-path="url(#a)"><path fill="#F60" d="M33 66c18.225 0 33-14.775 33-33S51.225 0 33 0 0 14.775 0 33s14.775 33 33 33Z"/><path fill="#fff" d="M52.88 36.225h-4.095a.603.603 0 0 0-.58.445l-.737 2.737H31.545c-.64 0-1.195.286-1.563.804a1.87 1.87 0 0 0-.258 1.74l1.256 3.7.409 1.201.292.862c.031.094.069.184.113.271a2.141 2.141 0 0 0 1.944 1.202H45.4a1.355 1.355 0 0 1 0 2.709h-.636a2.102 2.102 0 0 0-4.025 0h-3.645a2.101 2.101 0 0 0-4.113.6c0 1.159.943 2.102 2.101 2.102.95 0 1.753-.635 2.012-1.5h3.645a2.103 2.103 0 0 0 2.011 1.5c.95 0 1.755-.635 2.014-1.5h.634a2.556 2.556 0 0 0 .95-4.928l.715-2.655.009-.021 1.227-4.553.208-.776c.002-.002.002-.004.002-.007l.737-2.731h3.637a.601.601 0 1 0-.002-1.202ZM31.588 43.7l-.724-2.132a.678.678 0 0 1 .1-.653c.142-.2.34-.303.587-.303h.799l.699 3.088h-1.46Zm2.154 4.288a.948.948 0 0 1-.92-.657l-.827-2.429h1.323l.7 3.086h-.276Zm-.163-7.378h2.454l.254 3.088H34.28l-.701-3.088Zm1.671 7.378-.699-3.086h1.834l.255 3.086h-1.39Zm4.626 0h-2.03l-.255-3.086h2.488l-.203 3.086Zm.28-4.288H37.49l-.254-3.088h3.121l-.202 3.088Zm2.773 4.288h-1.849l.2-3.086h2.202l-.553 3.086Zm-1.57-4.288.203-3.088h2.694L43.7 43.7h-2.341Zm3.796 4.288h-1.006l.556-3.086h1.283l-.833 3.086Zm1.966-7.286-.808 2.996h-1.391l.555-3.088h1.667l-.023.092ZM30.152 15.616c0-.682-.555-1.237-1.238-1.237h-2.297c-.332 0-.6-.27-.6-.601A1.78 1.78 0 0 0 24.237 12a1.78 1.78 0 0 0-1.777 1.778c0 .332-.27.6-.601.6h-2.298a1.24 1.24 0 0 0-1.24 1.238v2.302h11.83v-2.302Zm-5.914-.997a.842.842 0 0 1-.84-.841.841.841 0 1 1 .84.84Zm12.985 21.105a.594.594 0 0 0 .505.085v2.308h-1.05v-2.81c.175.148.357.287.545.417Zm-.545-12.361v.72l.248.248c.2.2.234.515.08.753a6.21 6.21 0 0 0-.88 2.127.603.603 0 0 1-.59.477h-.82a7.43 7.43 0 0 0 0 1.653h.82a.6.6 0 0 1 .59.478 6.19 6.19 0 0 0 .88 2.122.603.603 0 0 1-.08.753l-.58.582a7.63 7.63 0 0 0 1.167 1.169l.58-.58a.6.6 0 0 1 .751-.08 6.279 6.279 0 0 0 2.126.88.603.603 0 0 1 .478.59v.82c.553.06 1.1.06 1.65 0v-.82a.6.6 0 0 1 .478-.59 6.248 6.248 0 0 0 2.127-.88.6.6 0 0 1 .75.08l.58.58a7.74 7.74 0 0 0 1.17-1.169l-.583-.582a.603.603 0 0 1-.08-.753 6.224 6.224 0 0 0 .881-2.122.603.603 0 0 1 .589-.478h.82a7.301 7.301 0 0 0 0-1.653h-.82a.6.6 0 0 1-.589-.477 6.235 6.235 0 0 0-.88-2.127.603.603 0 0 1 .08-.753l.58-.58a7.63 7.63 0 0 0-1.167-1.169l-.58.583a.6.6 0 0 1-.754.077 6.241 6.241 0 0 0-2.126-.88.603.603 0 0 1-.478-.589v-.822a7.783 7.783 0 0 0-1.65 0v.822a.6.6 0 0 1-.478.588c-.76.161-1.475.457-2.126.88a.6.6 0 0 1-.753-.076l-.58-.582a7.73 7.73 0 0 0-.83.78Zm5.594.444a4.71 4.71 0 0 1 4.706 4.703 4.708 4.708 0 0 1-4.706 4.701 4.708 4.708 0 0 1-4.703-4.7 4.71 4.71 0 0 1 4.703-4.704Zm-25.151-5.834H13v27.678h16.62l-1.117-3.284a3.16 3.16 0 0 1 .43-2.902 3.16 3.16 0 0 1 2.61-1.344h3.931v-4.013a9.037 9.037 0 0 1-.417-.548.598.598 0 0 1 .067-.768l.615-.616a7.364 7.364 0 0 1-.678-1.636h-.872a.602.602 0 0 1-.593-.498 9.083 9.083 0 0 1-.133-1.53c0-.507.046-1.02.133-1.527.05-.288.3-.499.593-.499h.872c.106-.384.246-.757.413-1.118v-.787l-.35-.348a.601.601 0 0 1-.067-.77c.131-.188.271-.372.417-.549v-4.939h-4.123v.545c0 .332-.269.6-.6.6l-13.03-.003c-.331 0-.6-.27-.6-.6v-.544Zm1.972 14.809-1.989 2.389a.603.603 0 0 1-.92.004l-1.143-1.36a.602.602 0 0 1 .92-.775l.682.81 1.527-1.836a.6.6 0 1 1 .923.767Zm2.084-10.677h9.576a.601.601 0 0 1 0 1.201h-9.576a.601.601 0 0 1 0-1.201Zm0 1.917H26.5a.601.601 0 0 1 0 1.202h-5.323a.601.601 0 0 1 0-1.202Zm0 3.174h9.576a.601.601 0 0 1 0 1.202h-9.576a.601.601 0 0 1 0-1.202Zm0 1.917H26.5a.601.601 0 0 1 0 1.202h-5.323a.601.601 0 0 1 0-1.202Zm0 3.172h9.576a.601.601 0 0 1 0 1.202h-9.576a.601.601 0 0 1 0-1.202Zm0 1.918H26.5a.601.601 0 0 1 0 1.201h-5.323a.601.601 0 0 1 0-1.202Zm-2.084-6.51-1.989 2.386a.603.603 0 0 1-.92.005l-1.143-1.357a.601.601 0 0 1 .92-.774l.682.81 1.527-1.836a.598.598 0 1 1 .922.766Zm-.922-5.86a.602.602 0 0 1 .924.77l-1.989 2.39a.603.603 0 0 1-.92.003l-1.143-1.356a.602.602 0 0 1 .92-.774l.68.808 1.527-1.84Zm20.602 6.677c0-1.93 1.57-3.501 3.501-3.501a3.508 3.508 0 0 1 3.504 3.501 3.506 3.506 0 0 1-3.504 3.501 3.506 3.506 0 0 1-3.5-3.5Z"/></g><defs><clipPath id="a"><path fill="#fff" d="M0 0h66v66H0z"/></clipPath></defs></svg>