<svg xmlns="http://www.w3.org/2000/svg" fill="none" viewBox="0 0 33 33"><path fill="#fff" d="M17.335 0C8.705 0 1.673 7.024 1.673 15.664c0 2.047.392 4.05 1.161 5.933.204.494.213.996.04 1.5L.079 31.17c-.377 1.083.66 2.127 1.75 1.75l8.076-2.8a2.099 2.099 0 0 1 1.5.039 15.647 15.647 0 0 0 5.932 1.161c8.64 0 15.663-7.024 15.663-15.663C32.998 7.024 25.975 0 17.336 0Zm0 28.651c-2.228 0-4.417-.572-6.348-1.655a.567.567 0 0 0-.55-.016l-5.07 2.449a1.321 1.321 0 0 1-.597.141c-.957 0-1.656-1.02-1.208-1.939l2.448-5.07a.596.596 0 0 0-.015-.55 13.006 13.006 0 0 1-1.656-6.35c0-7.163 5.83-12.994 12.995-12.994 7.163 0 12.994 5.83 12.994 12.995.002 7.167-5.829 12.99-12.993 12.99Z"/><path fill="#fff" d="m24.091 17.603-2.48-.267c-.369-.04-.43.22-.525.487-.15.423-.463 1.318-1.531 1.02-2.292-.629-4.764-3.1-5.391-5.392-.377-1.389 1.208-1.499 1.39-1.695a.43.43 0 0 0 .117-.361l-.267-2.48a1.144 1.144 0 0 0-1.076-1.02c-1.02-.055-1.907.11-2.377.447-1.72 1.201-1.076 3.752-.541 5.164 1.452 3.845 4.253 6.647 8.098 8.098 1.413.534 3.962 1.17 5.163-.54.33-.472.502-1.366.448-2.378a1.149 1.149 0 0 0-1.028-1.083Z"/></svg>