<svg xmlns="http://www.w3.org/2000/svg" fill="none" viewBox="0 0 66 66"><path fill="#F60" d="M33 66c18.225 0 33-14.775 33-33S51.225 0 33 0 0 14.775 0 33s14.775 33 33 33Z"/><path fill="#fff" d="m19.111 38.77 11.023 11.426-4.111 4.263L15 43.032l2.658-2.756.004-.004 1.45-1.503Zm31.917-4.697a2.266 2.266 0 0 0-3.275-.037l-5.818 5.898c-.56.96-1.573 1.603-2.731 1.603h-8.531a.607.607 0 0 1-.596-.618c0-.34.266-.618.596-.618h8.53c.743 0 1.393-.423 1.736-1.049.002-.002.002-.005.002-.005.042-.076.08-.155.112-.236l.006-.019a1.455 1.455 0 0 0 .066-.197.432.432 0 0 0 .014-.054c.008-.033.016-.066.022-.1.005-.018.006-.038.01-.057.005-.02.006-.04.01-.06l.006-.056c.002-.025.005-.048.006-.073.002-.014.002-.031.005-.046.002-.039.004-.08.004-.12 0-1.142-.895-2.07-1.997-2.07l-6.102-.007a.579.579 0 0 1-.366-.13c-2.387-1.928-4.777-1.86-7.303.21l-3.702 3.499 7.22 7.484 1.304-1.354a.596.596 0 0 1 .422-.182l10.854-.005c.918 0 1.686-.326 2.348-.995l7.115-7.215c.44-.446.686-1.047.692-1.69a2.429 2.429 0 0 0-.658-1.702v.002Zm-10.97.967V22.018h8.486v10.2c-.61.152-1.167.47-1.625.935l-4.556 4.62c-.174-1.315-1.096-2.385-2.306-2.733Zm1.63-9.276c0 .342.267.618.595.618h4.038c.33 0 .596-.276.596-.618a.606.606 0 0 0-.596-.618h-4.038a.607.607 0 0 0-.596.618Zm0 2.95c0 .342.267.618.595.618h4.038c.33 0 .596-.276.596-.618a.606.606 0 0 0-.596-.618h-4.038a.607.607 0 0 0-.596.618Zm0 2.936c0 .342.267.617.595.617h4.038c.33 0 .596-.275.596-.617a.606.606 0 0 0-.596-.618h-4.038a.607.607 0 0 0-.596.618Zm-22.999 5.809-.855.887.002-21.816h8.485V34.17a9.862 9.862 0 0 0-1.676 1.136l-3.76 3.553-1.352-1.4a.58.58 0 0 0-.844 0Zm.774-17.567c0 .343.268.618.596.618h4.036c.33 0 .596-.275.596-.618a.606.606 0 0 0-.596-.617h-4.036a.607.607 0 0 0-.596.617Zm0 2.936c0 .342.268.618.596.618h4.036c.33 0 .596-.276.596-.618a.606.606 0 0 0-.596-.618h-4.036a.607.607 0 0 0-.596.618Zm0 2.936c0 .342.268.617.596.617h4.036c.33 0 .596-.275.596-.617a.606.606 0 0 0-.596-.618h-4.036a.607.607 0 0 0-.596.618Zm0 2.95c0 .342.268.617.596.617h4.036c.33 0 .596-.275.596-.617a.606.606 0 0 0-.596-.618h-4.036a.607.607 0 0 0-.596.618Zm0 2.935c0 .342.268.618.596.618h4.036c.33 0 .596-.276.596-.618a.606.606 0 0 0-.596-.618h-4.036a.607.607 0 0 0-.596.618Zm9.663 1.74a5.735 5.735 0 0 0-1.613.277V12h11.354v22.919h-2.435v-7.173a.607.607 0 0 0-.596-.618h-5.29a.606.606 0 0 0-.595.618v5.686a5.473 5.473 0 0 0-.825-.043Zm.746-17.786c0 .34.266.618.596.618h5.442c.33 0 .596-.278.596-.618a.607.607 0 0 0-.596-.618l-5.442-.002a.608.608 0 0 0-.596.62Zm0 2.935c0 .343.266.618.596.618h5.442c.33 0 .596-.277.596-.618a.609.609 0 0 0-.596-.617h-5.442a.607.607 0 0 0-.596.617Zm0 2.938c0 .342.266.618.596.618h5.442c.33 0 .596-.276.596-.618a.609.609 0 0 0-.596-.618h-5.442a.607.607 0 0 0-.596.618Zm3.43 13.442h1.936v-6.555H31.14v5.353c.732.253 1.452.653 2.162 1.202Z"/></svg>