<svg xmlns="http://www.w3.org/2000/svg" fill="none" viewBox="0 0 66 66"><g clip-path="url(#a)"><path fill="#F60" d="M33 66c18.225 0 33-14.775 33-33S51.225 0 33 0 0 14.775 0 33s14.775 33 33 33Z"/><path fill="#fff" d="M17 37.56h4.004v15.248H17V37.56Zm27.264 0v15.248h4.002V37.56h-4.002Zm-3.238 3.63-2.304-2.42c-.33-.345-.75-.52-1.248-.52h-3.679c-.463 0-.846.146-1.171.444l-5.489 5.026c-.677.62-.488 1.312-.084 1.75.407.447 1.307.842 2.112.105l2.631-2.41a2.817 2.817 0 0 1 1.96-.75h2.03c1.143 0 2.137.62 2.592 1.614l3.132 6.827h1.589l-.002-9.485H41.45a.59.59 0 0 1-.424-.181Zm-5.244 2.396h-2.03a1.67 1.67 0 0 0-1.171.443l-2.632 2.41c-1.272 1.166-2.888.777-3.763-.178-.782-.853-1.064-2.282.159-3.402l3.864-3.54H22.17v10.207h1.571c.216 0 .416.119.517.313l1.913 3.627c.325.618 1.165.877 1.83.564.325-.152.566-.414.675-.737.101-.3.076-.62-.072-.901l-1.476-2.817a.585.585 0 0 1 1.036-.544l1.848 3.521c.325.618 1.163.877 1.833.566.327-.152.568-.416.677-.741.1-.3.076-.62-.072-.898l-.387-.734c-.031-.06-.062-.118-.087-.171l-.012-.023.002-.002a.084.084 0 0 1-.008-.019c-.017-.022-.03-.047-.042-.072l-1.27-2.625a.583.583 0 1 1 1.052-.508l1.27 2.625a.279.279 0 0 1 .017.039c.005.004.006.01.008.014l.002-.002.01.019c.031.051.06.107.09.164l.267.497c.203.383.442.831.578 1.09.325.618 1.165.878 1.83.565.692-.321.748-.89.71-1.402l-.001-.012-2.114-4.526a.585.585 0 0 1 1.06-.494l2.118 4.534c.027.035.054.076.079.119.024.045.061.12.115.222.072.142.179.359.333.649.326.615 1.163.873 1.833.564.26-.12.46-.31.588-.546l-3.178-6.931c-.27-.579-.842-.927-1.532-.927Zm-1.962-9.52a10.528 10.528 0 0 1-7.696-1.963l1.723-.206a.584.584 0 1 0-.14-1.162l-3.057.367a.584.584 0 0 0-.51.65l.366 3.058a.585.585 0 0 0 1.161-.14l-.192-1.594a11.683 11.683 0 0 0 6.91 2.257 11.687 11.687 0 0 0 9.769-5.227.582.582 0 0 0-.165-.81.582.582 0 0 0-.81.165 10.52 10.52 0 0 1-7.36 4.606ZM22.686 18.258a.586.586 0 0 0 .807-.183 10.521 10.521 0 0 1 7.344-4.786 10.502 10.502 0 0 1 7.84 1.939l-1.717.208a.584.584 0 1 0 .14 1.16l3.057-.368a.585.585 0 0 0 .51-.65l-.366-3.055a.584.584 0 1 0-1.16.14l.19 1.595a11.684 11.684 0 0 0-8.669-2.124 11.691 11.691 0 0 0-8.159 5.32.584.584 0 0 0 .183.804Zm4.08 3.741c.114-.379.264-.743.454-1.091l-.4-.4a.587.587 0 0 1-.066-.749 6.842 6.842 0 0 1 1.674-1.674.582.582 0 0 1 .75.066l.397.4a5.81 5.81 0 0 1 1.09-.453v-.562c0-.284.205-.527.485-.577a6.81 6.81 0 0 1 2.365 0c.28.05.484.293.484.577v.562c.381.113.745.265 1.091.453l.4-.4a.584.584 0 0 1 .749-.066 6.838 6.838 0 0 1 1.674 1.674.584.584 0 0 1-.066.75l-.4.399c.188.348.338.712.451 1.091h.567c.284 0 .527.204.576.484a7.003 7.003 0 0 1 0 2.366.585.585 0 0 1-.576.483H37.9a5.802 5.802 0 0 1-.45 1.091l.399.4c.2.2.229.517.066.75a6.877 6.877 0 0 1-1.674 1.673.584.584 0 0 1-.75-.066l-.399-.4c-.346.188-.712.34-1.09.454v.564a.581.581 0 0 1-.485.574c-.389.07-.788.103-1.181.103-.394 0-.793-.035-1.184-.103a.585.585 0 0 1-.484-.574v-.564a5.81 5.81 0 0 1-1.091-.453l-.398.4a.584.584 0 0 1-.749.065 6.873 6.873 0 0 1-1.674-1.674.584.584 0 0 1 .066-.75l.4-.399a5.683 5.683 0 0 1-.453-1.09l-.566.001a.581.581 0 0 1-.575-.483 6.757 6.757 0 0 1-.103-1.182c0-.391.035-.793.103-1.184a.585.585 0 0 1 .575-.484l.564-.002Zm5.567 4.785a3.12 3.12 0 0 0 3.117-3.115 3.12 3.12 0 0 0-3.117-3.117 3.12 3.12 0 0 0-3.117 3.117 3.12 3.12 0 0 0 3.117 3.115Zm-8.467-.328c0-1.06-.863-1.922-1.921-1.922H21.3c-1.06 0-1.92.862-1.92 1.922v.665h4.486v-.665Zm-2.244-3.094c.869 0 1.577-.706 1.577-1.573a1.58 1.58 0 0 0-1.577-1.577 1.574 1.574 0 0 0 0 3.15Zm24.262 3.094c0-1.06-.862-1.922-1.92-1.922h-.645c-1.06 0-1.92.862-1.92 1.922v.665h4.485v-.665Zm-2.242-3.094c.869 0 1.577-.706 1.577-1.573a1.58 1.58 0 0 0-1.577-1.577c-.869 0-1.573.708-1.573 1.577a1.572 1.572 0 0 0 1.573 1.573Z"/></g><defs><clipPath id="a"><path fill="#fff" d="M0 0h66v66H0z"/></clipPath></defs></svg>