<svg xmlns="http://www.w3.org/2000/svg" fill="none" viewBox="0 0 35 35"><path fill="#fff" d="M4 23.333A7.668 7.668 0 0 0 11.667 31h10.666A7.668 7.668 0 0 0 30 23.333V12.667A7.668 7.668 0 0 0 22.333 5H11.667A7.668 7.668 0 0 0 4 12.667v10.666ZM24 9.667a1.65 1.65 0 0 1 1.667 1.666A1.65 1.65 0 0 1 24 13a1.65 1.65 0 0 1-1.667-1.667A1.65 1.65 0 0 1 24 9.667Zm-7 2A6.33 6.33 0 0 1 23.333 18 6.33 6.33 0 0 1 17 24.333 6.33 6.33 0 0 1 10.667 18 6.33 6.33 0 0 1 17 11.667Z"/><path fill="#fff" d="M22 18a5 5 0 1 1-10 0 5 5 0 0 1 10 0Z"/></svg>