<svg xmlns="http://www.w3.org/2000/svg" fill="none" viewBox="0 0 66 66"><g clip-path="url(#a)"><path fill="#4D4D4D" d="M33 66c18.225 0 33-14.775 33-33S51.225 0 33 0 0 14.775 0 33s14.775 33 33 33Z"/><path fill="#fff" d="m32.867 32.26 5.398 3.88 5.397-3.88c1.855-1.334 2.782-3.145 2.782-5.429v-7.906c-3.08-1.67-5.641-2.506-8.179-2.506-2.538 0-5.1.835-8.178 2.506v7.906c-.001 2.284.925 4.096 2.78 5.429Zm-.23-8.746a1.337 1.337 0 0 1 1.878.215l1.899 2.389 5.389-5.389a1.339 1.339 0 1 1 1.894 1.894l-6.448 6.449a1.34 1.34 0 0 1-2.047-.182l-2.78-3.498a1.337 1.337 0 0 1 .215-1.878Zm16.938 20.31-13.817 7.977c-1.118.645-2.3.757-3.559.468l-5.524-1.266c-1.484-.34-2.709-.121-3.876.541l-2.745-10.246 2.207-1.69c1.025-.785 2.187-1.095 3.467-.926l9.646 2.626a2.875 2.875 0 0 1 2.01 3.515c-.308 1.163-1.54 1.857-2.697 1.542l-5.152-1.403a.667.667 0 0 0-.349 1.287l5.153 1.402a3.541 3.541 0 0 0 4.332-2.48c.1-.367.138-.736.119-1.099l8.196-4.731a2.596 2.596 0 0 1 3.536.947 2.596 2.596 0 0 1-.947 3.537ZM21.876 53.25c.081.303-.1.617-.403.699l-2.295.615a.572.572 0 0 1-.698-.403l-3.327-12.418a.572.572 0 0 1 .403-.698l2.295-.615c.303-.08.617.1.698.403l3.327 12.417Zm9.241-18.556 7.148 5.137 7.146-5.136c2.636-1.895 4.032-4.617 4.032-7.863v-9.648c-8.461-5.02-13.895-5.02-22.356 0v9.648c-.001 3.246 1.394 5.968 4.03 7.863Zm-2.363-16.16c0-.234.124-.46.342-.581 3.434-1.907 6.289-2.861 9.168-2.86 2.865 0 5.707.944 9.118 2.832a.666.666 0 0 1 .394.61v8.297c0 2.705-1.143 4.929-3.339 6.507l-5.773 4.15a.665.665 0 0 1-.787.008l-5.786-4.158c-2.195-1.578-3.338-3.802-3.338-6.507l.002-8.298Z"/></g><defs><clipPath id="a"><path fill="#fff" d="M0 0h66v66H0z"/></clipPath></defs></svg>