<svg xmlns="http://www.w3.org/2000/svg" fill="none" viewBox="0 0 193 56"><g fill="#fff" clip-path="url(#a)"><path fill-rule="evenodd" stroke="#fff" stroke-width=".378" d="M23.283 50.612a4.663 4.663 0 0 1-.831 1.096 4.587 4.587 0 0 1-6.577 0 4.745 4.745 0 0 1 1.096-7.483L13.986 41.2l-.718-.68-3.856-3.893 1.059-.567a3.85 3.85 0 0 0 .869-.68 3.81 3.81 0 0 0 0-5.368 3.764 3.764 0 0 0-5.33 0c-.264.265-.453.567-.642.87l-.567 1.058-4.535-4.573 3.704-3.742c-.416-.227-.794-.491-1.096-.832-1.814-1.814-1.814-4.8 0-6.651a4.653 4.653 0 0 1 6.576 0c.34.34.605.718.832 1.096l3.061-3.1-.038-.037 4.536-4.574.567 1.059c.189.34.415.604.68.869a3.698 3.698 0 0 0 5.33 0 3.81 3.81 0 0 0 0-5.367 3.05 3.05 0 0 0-.908-.642l-1.02-.605L27.025.269l3.704 3.741a4.8 4.8 0 0 1 .794-1.096 4.587 4.587 0 0 1 6.576 0c1.852 1.814 1.852 4.8 0 6.652-.302.303-.68.605-1.058.794l3.061 3.137.643.605 3.893 3.968-1.02.567c-.341.189-.643.416-.908.68a3.81 3.81 0 0 0 0 5.367 3.764 3.764 0 0 0 5.33 0c.264-.264.49-.567.68-.869l.566-1.058 4.536 4.573-3.704 3.742c.416.227.756.491 1.096.831 1.814 1.814 1.814 4.8 0 6.652-1.814 1.814-4.762 1.814-6.614 0a7.328 7.328 0 0 1-.794-1.096l-3.704 3.742-.038-.076-3.93 3.969-.567-1.059a2.486 2.486 0 0 0-.643-.869 3.698 3.698 0 0 0-5.329 0 3.81 3.81 0 0 0 0 5.367c.265.265.567.492.87.643l1.058.567-4.536 4.61-3.704-3.741Zm14.173-20.636v-.038l-.075-.076-.076-.075-.075-.038-.076-.076-.075-.075-.076-.038-.076-.076-.075-.038-.076-.037-.075-.076-.076-.038-.113-.038-.076-.037-.075-.038-.076-.038-.076-.038-.113-.037-.076-.038-.075-.038-.114-.038h-.075l-.076-.038h-.075l-.114-.037h-.075l-.114-.038h-.264l-.076-.038h-.378l-.076.038h-.264l-.113.038h-.076l-.076.037h-.113l-.076.038h-.075l-.114.038-.075.038-.076.038-.075.037-.114.038-.075.038-.076.038-.075.038-.076.037-.114.038-.075.076-.076.038-.075.037-.076.076-.075.038-.076.075-.076.076-.075.038-.038.075-.076.076h-.037v.038h-.038v.037h-.038v.038h-.038v.038l-.038.038-.037.038v.037h-.038v.038h-.038v.038h-.038v.038l-.037.038v.037h-.038v.038l-.038.038v.038h-.038v.038l-.038.037v.038h-.037v.038l-.038.038v.038h-.038v.075h-.038l-.567 1.058-.831-.831-2.986-3.024L24 31.072l.038.038h.038v.037h.076v.038h.037l.038.038.038.038h.038v.038h.075v.037h.038l.038.038.038.038h.038v.038h.037v.038h.038v.037h.038l.038.038h.038v.038l.037.038h.038v.037h.038v.038h.038v.038h.038v.038h.037v.038h.038l.038.037v.038h.038c1.814 1.852 1.814 4.838 0 6.652a4.587 4.587 0 0 1-6.577 0l-.038-.038-.037-.037h-.038v-.038h-.038v-.038h-.038v-.038h-.038v-.038l-.037-.037h-.038v-.038l-.038-.038v-.038h-.038v-.038h-.037v-.037h-.038v-.038l-.038-.038v-.038h-.038v-.038h-.038v-.037l-.037-.038v-.038h-.038v-.076h-.038v-.037h-.038v-.038l-.038-.038v-.038l-.037-.038v-.037h-.038v-.038l-3.062 3.1 2.986 3.023.87.831-1.059.567c-.34.19-.605.416-.869.68l-.076.076-.075.076-.038.075-.076.038-.075.076-.038.113-.076.076-.037.075-.038.076-.076.075-.038.076-.037.076-.038.075-.038.114-.038.075-.037.076-.038.075-.038.114-.038.075v.076l-.038.113-.037.076v.075l-.038.114v.189l-.038.075V48.836l.038.075v.189l.037.113v.076l.038.076.038.113v.076l.038.075.038.114.038.075.037.076.038.075.038.114.038.075.037.076.038.075.076.076.038.076.037.075.076.114.038.075.075.076.076.038.038.075.075.076.076.075.076.076.075.076.038.037.075.076.076.076.076.037.075.076.076.038.113.037.076.076.075.038.076.038.076.037.075.038.114.038.075.038.076.038.075.037.114.038.075.038h.076l.113.038h.076l.075.038h.114l.075.037h.265l.076.038h.378c.075-.038.113-.038.189-.038h.189l.075-.037h.076l.113-.038c.076 0 .151-.038.265-.038.037-.038.113-.038.15-.076l.076-.037.114-.038.075-.038.076-.038.076-.038.113-.037.076-.038.075-.038c.038-.038.114-.076.151-.113l.076-.038.076-.076.075-.037.076-.076c.037-.038.113-.076.15-.113l.076-.076.076-.076.038-.037.038-.038.038-.038v-.038h.037v-.038h.038v-.037h.038V50.8l.038-.038.038-.038v-.038h.037v-.037l.038-.038.038-.038v-.038h.038v-.038l.037-.037v-.038h.038v-.038l.038-.038v-.038l.038-.037v-.038h.038v-.038l.567-1.058.264.264.567.567 3.1 3.1 3.06-3.1h-.037v-.038h-.076v-.037h-.037l-.038-.038h-.038l-.038-.038h-.038v-.038h-.037l-.038-.037-.038-.038h-.038l-.038-.038h-.037v-.038h-.038v-.038h-.038l-.038-.037-.038-.038h-.037v-.038h-.038v-.038h-.038l-.038-.038v-.037h-.038l-.037-.038h-.038v-.038l-.038-.038h-.038v-.038l-.038-.037h-.037l-.076-.114-.076-.075-.075-.076-.076-.113-.075-.076c-.038-.038-.038-.075-.076-.113l-.075-.076-.038-.113-.076-.076-.075-.113-.038-.114-.076-.075-.038-.114-.037-.113-.076-.113-.038-.114-.038-.075-.037-.114c0-.038 0-.075-.038-.113l-.038-.114v-.113l-.038-.113-.038-.114v-.113l-.037-.113v-.076l-.038-.113v-.227l-.038-.114v-.34c0-.113.038-.226.038-.34v-.113c0-.076.038-.151.038-.227l.037-.113v-.114l.038-.113.038-.114v-.113l.038-.113.038-.076.037-.113.038-.114.038-.113.076-.114.037-.075.038-.114.076-.113.038-.113.075-.076.076-.113.038-.076.075-.113.076-.076.075-.113.076-.076.075-.113c.038 0 .038-.038.076-.076l.076-.075.113-.114.076-.075.075-.076.114-.075.075-.076.114-.076.075-.075.114-.038.075-.076.114-.075.075-.038.114-.076.113-.037.113-.038.076-.038.113-.076.114-.037.113-.038.113-.038.076-.038h.113l.114-.038.113-.037h.114l.113-.038h.113l.114-.038h.226l.114-.038h.416l.113.038h.227l.113.038h.114l.113.038h.113l.114.037.113.038h.113l.076.038.113.038.114.038.113.037.114.076.075.038.113.038.114.037.075.076.114.038.113.075.076.076.113.038.076.075.113.076.076.076.113.075.076.076.075.075.114.114c.302.302.567.68.794 1.096l3.06-3.1-3.06-3.137-.832-.831 1.02-.567.038-.038h.038l.038-.038h.038v-.037h.075v-.038h.038v-.038h.076v-.038h.037v-.038h.076v-.037h.038v-.038h.038v-.038h.037v-.038h.076v-.038h.038v-.037h.038v-.038h.037v-.038h.038v-.038h.038v-.037h.038v-.038h.038l.037-.076.076-.075.075-.076.038-.038.076-.075.075-.076v-.038l.038-.075.038-.076.076-.076.038-.075.037-.076.038-.075.038-.076.075-.113.038-.076v-.076l.038-.075.038-.113.038-.076.037-.076v-.113l.038-.076v-.075l.038-.114v-.075l.038-.114V33l.038-.113v-.529l-.038-.114v-.151l-.038-.113v-.076l-.038-.113v-.076l-.038-.075v-.114l-.037-.075-.038-.076-.038-.113-.038-.076v-.075l-.038-.076-.075-.113-.038-.076-.038-.076-.038-.075-.037-.076-.076-.075-.038-.076-.038-.113-.075-.076-.076-.076-.038-.037-.075-.076-.076-.076-.038-.037Zm2.646-15.232-3.061 3.1-.87.869-.566-1.059a3.05 3.05 0 0 0-.643-.907 3.764 3.764 0 0 0-5.33 0 3.856 3.856 0 0 0 0 5.405c.265.265.568.491.87.642l1.059.567-.832.87-3.061 3.099v.038l3.023 3.023c.19-.415.492-.755.794-1.096a4.587 4.587 0 0 1 6.576 0l.038.038c1.852 1.852 1.852 4.838 0 6.652-.302.34-.68.605-1.058.832l3.061 3.099 3.062-3.1.869-.869.567 1.059c.151.34.378.642.642.907a3.764 3.764 0 0 0 5.33 0 3.856 3.856 0 0 0 0-5.405c-.265-.265-.567-.454-.87-.643l-1.058-.566.831-.87 3.1-3.099-3.1-3.1a4.24 4.24 0 0 1-.793 1.097 4.653 4.653 0 0 1-6.577 0 4.745 4.745 0 0 1 0-6.652c.303-.34.68-.605 1.059-.832l-3.062-3.099ZM18.483 18.07l.038.038-1.058.567c-.34.189-.605.416-.87.68-1.473 1.474-1.473 3.855 0 5.367l.038.038c1.474 1.398 3.818 1.398 5.254-.076.264-.264.491-.567.642-.869l.567-1.058h.038l.832.831 3.023 3.062.038.038 3.062-3.1h-.038v-.038h-.038l-.038-.037h-.038l-.037-.038h-.038l-.038-.038h-.038V23.4h-.038v-.038h-.037l-.038-.037h-.038v-.038h-.038v-.038h-.038l-.037-.038h-.038v-.038h-.038v-.037h-.038l-.038-.038h-.037v-.038h-.038v-.038h-.038v-.038h-.038l-.038-.037v-.038h-.037l-.038-.038-.038-.038-.038-.038-.113-.113c0-.038-.038-.038-.076-.075l-.075-.076-.076-.113-.076-.076-.075-.113-.076-.076-.037-.113-.076-.114-.038-.075-.075-.114-.038-.113-.076-.076-.038-.113-.037-.114-.038-.113-.076-.076-.038-.113-.037-.113v-.114l-.038-.113-.038-.113-.038-.114v-.113l-.038-.114v-.113l-.037-.113v-.416l-.038-.113.038-.114v-.453l.037-.114v-.113l.038-.114v-.113l.038-.113.038-.114.038-.113v-.114l.037-.113.038-.075.076-.114.038-.113.037-.114.038-.113.076-.076.038-.113.075-.113.038-.076.076-.113.075-.076.038-.113.075-.114.076-.075.076-.076.075-.113.076-.076.113-.075.076-.114c.038 0 .038-.038.075-.075l.114-.076.075-.076c.038-.037.076-.037.076-.075l.113-.076.076-.075.113-.038.076-.076c.038-.037.076-.037.113-.075l.114-.038.075-.076.114-.037.113-.038.113-.076.076-.038.113-.037c.038 0 .076-.038.114-.038l.113-.038.114-.038.075-.038h.114l.113-.037.113-.038h.114l.113-.038h.227l.113-.038h.681l.075.038h.227l.113.038h.114l.113.037c.038 0 .076 0 .114.038h.113l.113.038.114.038.075.038.114.037.113.038.113.038.114.076.075.037.114.038.113.076.076.038.113.075.076.076.113.038.113.075.076.076.076.075.113.076.076.076.075.075h.038l.076.114h.037v.037l.038.038h.038v.038l.038.038v.037h.038l.037.038v.038h.038v.038h.038v.038l.038.037v.038h.038v.038h.037v.038l.038.038v.037h.038v.038h.038v.038l.038.038v.038h.037v.037l.038.038v.038h.038v.076h.038v.075h.038v.038l.037.038v.038l3.062-3.137-3.062-3.1-.831-.831 1.058-.567c.302-.189.605-.416.87-.68a3.81 3.81 0 0 0 0-5.367 3.698 3.698 0 0 0-5.33 0 3.446 3.446 0 0 0-.642.869l-.567 1.058-.87-.831-3.061-3.1-3.061 3.1c.378.189.756.491 1.058.794 1.814 1.851 1.814 4.837 0 6.651a4.587 4.587 0 0 1-6.576 0 3.267 3.267 0 0 1-.794-1.096l-3.1 3.1 3.1 3.137.831.831Zm-4.61 21.808 3.93-3.968.076.113v-.038l.566 1.058c.19.303.378.605.605.832 1.474 1.474 3.855 1.474 5.292 0 1.474-1.512 1.474-3.893.037-5.367a3.36 3.36 0 0 0-.831-.605l-1.058-.567.037-.037-.113-.038 3.93-3.969-2.38-2.419-.605-.604a5.592 5.592 0 0 1-.832 1.096 4.654 4.654 0 0 1-6.576 0v-.038h-.038a4.745 4.745 0 0 1 1.096-7.484l-3.023-3.061-3.1 3.1-.831.868-.567-1.058a5.536 5.536 0 0 0-.642-.907 3.764 3.764 0 0 0-5.33 0c-1.474 1.474-1.474 3.893 0 5.405.227.227.53.453.87.642l1.058.567-.87.87-3.06 3.099 3.06 3.099c.227-.416.492-.756.832-1.096a4.587 4.587 0 0 1 6.577 0 4.745 4.745 0 0 1-1.097 7.483l2.986 3.024Z" clip-rule="evenodd"/><path d="M172.235 14.48v-3.667h13.077c4.611 0 6.916 2.306 6.916 6.955v10.28c0 4.687-2.305 6.992-6.916 6.992h-8.202c-4.649 0-6.954-2.192-6.954-6.576v-.907c0-4.309 2.305-6.463 6.954-6.463h9.336v3.666h-9.336c-2.192 0-3.288.945-3.288 2.797v.907c0 1.927 1.096 2.91 3.288 2.91h8.202c2.154 0 3.25-1.134 3.25-3.326v-10.28c0-2.192-1.096-3.288-3.25-3.288h-13.077ZM155.983 31.374v3.666h-9.789c-4.611 0-6.917-2.305-6.917-6.992v-10.28c0-4.649 2.306-6.955 6.917-6.955h9.789v3.667h-9.789c-2.155 0-3.251 1.096-3.251 3.288v10.28c0 2.192 1.096 3.326 3.251 3.326h9.789ZM116.6 14.48v-3.667h13.077c4.611 0 6.917 2.306 6.917 6.955v10.28c0 4.687-2.306 6.992-6.917 6.992h-8.202c-4.648 0-6.954-2.192-6.954-6.576v-.907c0-4.309 2.306-6.463 6.954-6.463h9.336v3.666h-9.336c-2.192 0-3.288.945-3.288 2.797v.907c0 1.927 1.096 2.91 3.288 2.91h8.202c2.154 0 3.25-1.134 3.25-3.326v-10.28c0-2.192-1.096-3.288-3.25-3.288H116.6ZM114.446 35.04h-4.687l-7.899-9.75-7.862 9.75h-4.762l10.167-12.132-10.167-12.095h4.762l7.862 9.714 7.899-9.714h4.687l-10.167 12.095 10.167 12.132Z"/><path d="M87.27 31.374v3.666H74.157c-4.611 0-6.917-2.305-6.917-6.992v-10.28c0-4.649 2.306-6.955 6.917-6.955h8.24c4.648 0 6.954 2.155 6.954 6.463v1.02c0 4.31-2.306 6.464-6.955 6.464h-9.373v-3.666h9.373c2.192 0 3.288-.945 3.288-2.797v-1.02c0-1.853-1.096-2.797-3.288-2.797h-8.24c-2.154 0-3.25 1.096-3.25 3.288v10.28c0 2.192 1.096 3.326 3.25 3.326h13.116ZM158.288 10.813h1.928V.458h3.704v10.355h4.308v3.742h-4.308v13.569c0 2.23 1.058 3.326 3.25 3.326h1.739v3.704h-1.739c-4.649 0-6.954-2.344-6.954-7.03V14.555h-1.928v-3.742Z"/><path fill-rule="evenodd" d="M85.154 55.298c-.831 0-1.512-.189-2.116-.566-.605-.378-1.059-.907-1.399-1.588-.302-.642-.453-1.436-.453-2.305v-.34c0-.832.15-1.588.453-2.268.303-.643.794-1.172 1.36-1.588.606-.378 1.324-.567 2.155-.567.718 0 1.323.114 1.89.34.53.227.983.568 1.323.983l.038 2.117h-1.248l-.264-1.55a1.951 1.951 0 0 0-.718-.453c-.265-.114-.605-.151-.983-.151-.454 0-.907.113-1.247.415-.378.265-.643.643-.87 1.134a4.394 4.394 0 0 0-.302 1.587v.34c0 .643.114 1.21.302 1.701.19.454.454.832.794 1.096.378.265.794.379 1.285.379.53 0 .983-.152 1.36-.454.341-.302.568-.718.643-1.21h1.474v.038a3.364 3.364 0 0 1-.453 1.437c-.265.415-.68.793-1.172 1.058-.491.264-1.134.415-1.852.415Zm8.202 0c-.832 0-1.55-.189-2.117-.604-.605-.378-1.058-.907-1.398-1.588a5.763 5.763 0 0 1-.492-2.343v-.151c0-.907.19-1.663.492-2.343.34-.68.794-1.21 1.398-1.626.567-.378 1.285-.567 2.079-.567.831 0 1.55.19 2.117.567a4.176 4.176 0 0 1 1.398 1.626 5.63 5.63 0 0 1 .491 2.343v.151a5.63 5.63 0 0 1-.491 2.343c-.34.68-.794 1.21-1.398 1.588-.567.415-1.286.604-2.08.604Zm0-1.285c.491 0 .945-.15 1.285-.415.34-.265.605-.68.793-1.172.152-.454.265-1.02.265-1.663v-.151c0-.643-.113-1.21-.264-1.7-.19-.492-.454-.87-.794-1.135-.378-.302-.794-.416-1.323-.416-.491 0-.945.114-1.285.416-.34.265-.605.643-.794 1.134a5.736 5.736 0 0 0-.264 1.7v.152c0 .643.113 1.21.264 1.663.19.491.454.907.794 1.172.34.264.794.416 1.323.416Zm4.46 1.096v-1.02l1.322-.227v-6.35l-1.322-.226v-1.058h2.759l.113 1.322c.302-.453.68-.831 1.134-1.096.416-.264.945-.378 1.512-.378.945 0 1.7.265 2.23.832.529.567.756 1.436.756 2.608v4.346l1.36.227v1.02h-4.309v-1.02l1.361-.227v-4.308c0-.794-.151-1.361-.491-1.663-.303-.34-.756-.492-1.399-.492a2.38 2.38 0 0 0-1.247.34c-.34.19-.642.53-.831.908v5.215l1.322.227v1.02h-4.27Zm13.039.152c-.643 0-1.172-.19-1.55-.605-.378-.378-.567-.983-.567-1.814v-5.405h-1.436v-1.21h1.436v-2.116h1.588v2.117h1.927v1.21h-1.927v5.404c0 .416.113.718.264.945a.947.947 0 0 0 .681.302c.189 0 .415-.038.642-.075.227-.038.416-.076.567-.076l.189 1.058c-.227.038-.491.113-.869.19-.34.037-.643.075-.945.075Zm4.989.037c-.945 0-1.625-.226-2.117-.68-.491-.453-.718-1.096-.718-1.927 0-.567.151-1.059.454-1.474.302-.416.756-.718 1.36-.983.567-.227 1.286-.34 2.079-.34h1.588v-.87c0-.529-.152-.944-.492-1.247-.302-.302-.793-.416-1.36-.416a3.7 3.7 0 0 0-.983.114c-.265.113-.529.227-.756.378l-.151 1.247h-1.247v-2.04c.378-.341.869-.568 1.398-.719.529-.189 1.096-.265 1.739-.265 1.096 0 1.927.265 2.532.756.642.53.945 1.248.945 2.23v4.914l.869.113v1.02h-2.305c-.076-.226-.076-.453-.114-.642-.038-.189-.038-.378-.075-.567a3.789 3.789 0 0 1-1.172.983 2.894 2.894 0 0 1-1.474.415Zm.227-1.36c.529 0 1.02-.151 1.474-.378.453-.265.756-.567.945-.945v-1.587h-1.626c-.755 0-1.322.15-1.7.529-.341.34-.53.756-.53 1.171 0 .378.114.68.341.907.226.19.604.303 1.096.303Zm10.129 1.36a3.297 3.297 0 0 1-1.512-.34c-.416-.226-.756-.567-1.058-.982l-.151 1.133h-1.399V43.582l-1.323-.227v-1.02h2.948v4.95c.265-.377.643-.68 1.021-.906a3.532 3.532 0 0 1 1.474-.303c.718 0 1.36.19 1.852.605.529.378.945.945 1.209 1.663.265.718.416 1.55.416 2.495v.189c0 .831-.151 1.587-.416 2.23a3.127 3.127 0 0 1-1.209 1.474c-.492.377-1.134.566-1.852.566Zm-.416-1.322c.756 0 1.323-.265 1.701-.832.378-.529.567-1.247.567-2.116v-.19c0-.68-.076-1.284-.265-1.813a2.94 2.94 0 0 0-.718-1.21c-.34-.302-.756-.416-1.285-.416-.491 0-.907.114-1.247.34-.34.265-.643.567-.832.983v3.93c.189.379.492.719.832.946.34.264.756.378 1.247.378Zm4.271 1.133v-1.02l1.361-.227v-6.35l-1.361-.226v-1.058h2.986v7.634l1.323.227v1.02h-4.309Zm1.285-11.074v-1.7h1.701v1.7h-1.701Zm3.288 11.075v-1.021l1.361-.227v-10.28l-1.361-.227v-1.02h2.948v11.527l1.361.227v1.02h-4.309Zm4.649 0v-1.021l1.323-.227v-6.35l-1.323-.226v-1.058h2.948v7.634l1.323.227v1.02h-4.271Zm1.247-11.075v-1.7h1.701v1.7h-1.701Zm6.879 11.264c-.718 0-1.361-.19-1.852-.567-.529-.34-.907-.832-1.209-1.474-.265-.643-.378-1.399-.378-2.23v-.19c0-.944.113-1.776.378-2.494.302-.718.68-1.285 1.209-1.663.529-.416 1.134-.605 1.852-.605.529 0 .983.076 1.398.303.416.189.756.453 1.021.831v-3.628l-1.323-.227v-1.02h2.948v11.527l1.323.227v1.02h-2.721l-.152-1.058a2.438 2.438 0 0 1-1.058.907c-.416.227-.907.34-1.436.34Zm.416-1.323c.453 0 .869-.114 1.209-.34.34-.227.605-.53.794-.908v-4.12a2.313 2.313 0 0 0-.794-.906 2.493 2.493 0 0 0-1.209-.303c-.492 0-.945.114-1.247.416a2.642 2.642 0 0 0-.756 1.21c-.189.529-.265 1.133-.265 1.814v.189c0 .869.189 1.587.567 2.116.378.567.907.832 1.701.832Zm8.201 1.322c-.945 0-1.625-.226-2.116-.68-.492-.453-.718-1.096-.718-1.927 0-.567.151-1.059.453-1.474.303-.416.756-.718 1.361-.983.567-.227 1.285-.34 2.079-.34h1.587v-.87c0-.529-.151-.944-.491-1.247-.303-.302-.756-.416-1.361-.416-.378 0-.68.038-.983.114a4.338 4.338 0 0 0-.718.378l-.189 1.247h-1.247v-2.04a3.79 3.79 0 0 1 1.398-.719c.53-.189 1.134-.265 1.777-.265 1.058 0 1.927.265 2.532.756.605.53.907 1.248.907 2.23v4.611c0 .114 0 .19.038.303l.831.113v1.02h-2.305a25.456 25.456 0 0 0-.113-.642c-.038-.189-.038-.378-.076-.567-.302.378-.68.718-1.134.983-.491.264-.983.415-1.512.415Zm.227-1.36c.529 0 1.021-.151 1.474-.378.454-.265.756-.567.945-.945v-1.587h-1.625c-.756 0-1.323.15-1.663.529-.378.34-.567.756-.567 1.171 0 .378.113.68.34.907.265.19.605.303 1.096.303Zm8.92 1.36c-.718 0-1.361-.189-1.852-.566-.529-.34-.907-.832-1.21-1.474-.264-.643-.378-1.399-.378-2.23v-.19c0-.944.114-1.776.378-2.494.303-.718.681-1.285 1.21-1.663.529-.416 1.134-.605 1.852-.605.529 0 .982.076 1.398.303.416.189.756.453 1.021.831v-3.628l-1.323-.227v-1.02h2.948v11.527l1.323.227v1.02h-2.722l-.151-1.058a2.438 2.438 0 0 1-1.058.907c-.416.227-.907.34-1.436.34Zm.416-1.322c.453 0 .869-.114 1.209-.34.34-.227.605-.53.794-.908v-4.12a2.313 2.313 0 0 0-.794-.906 2.493 2.493 0 0 0-1.209-.303c-.492 0-.945.114-1.248.416-.34.302-.604.718-.756 1.21-.189.529-.264 1.133-.264 1.814v.189c0 .869.189 1.587.567 2.116.378.567.907.832 1.701.832Zm9.335 1.322c-.832 0-1.55-.189-2.154-.566-.605-.378-1.059-.907-1.399-1.588-.34-.642-.491-1.436-.491-2.305v-.34c0-.87.189-1.626.529-2.268.34-.68.794-1.21 1.361-1.588.604-.378 1.209-.567 1.889-.567.794 0 1.474.152 2.004.492.566.34.944.794 1.247 1.398.264.567.416 1.285.416 2.079v1.02h-5.783v.038c0 .567.075 1.058.302 1.512.151.416.454.794.794 1.02.34.265.794.379 1.285.379.529 0 1.02-.076 1.436-.227a3.301 3.301 0 0 0 1.058-.643l.643 1.058c-.302.303-.718.567-1.247.756-.529.227-1.172.34-1.89.34Zm-2.306-5.518h4.082v-.189c0-.453-.075-.831-.226-1.171a1.75 1.75 0 0 0-.681-.794c-.302-.189-.68-.264-1.134-.264-.34 0-.68.075-.982.302-.265.227-.529.491-.718.87-.189.34-.303.755-.378 1.209l.037.037Z" clip-rule="evenodd"/></g><defs><clipPath id="a"><path fill="#fff" d="M0 0h192.228v55.298H0z"/></clipPath></defs></svg>