<svg xmlns="http://www.w3.org/2000/svg" fill="none" viewBox="0 0 362 104"><g clip-path="url(#a)"><path fill="#F60" fill-rule="evenodd" d="m23.459 74.737 7.46-7.46.073.144h.071l1.076 2.008c.287.574.718 1.076 1.148 1.578 2.798 2.797 7.246 2.725 10.044-.072s2.798-7.316.072-10.113c-.502-.502-1.005-.86-1.579-1.22l-2.008-1.075h.071l-.215-.144 7.461-7.459-4.52-4.59-1.219-1.22a6.198 6.198 0 0 1-1.507 2.08 8.707 8.707 0 0 1-12.482 0h-.072c-3.444-3.514-3.444-9.18 0-12.623a8.853 8.853 0 0 1 2.08-1.578l-5.81-5.81-5.812 5.882-1.578 1.578-1.076-2.008a9.335 9.335 0 0 0-1.291-1.65 7.146 7.146 0 0 0-10.116 0c-2.797 2.797-2.797 7.387 0 10.185a7.725 7.725 0 0 0 1.722 1.29l1.937 1.076-1.578 1.578L0 51.069l5.81 5.881c.431-.789.934-1.506 1.507-2.08 3.444-3.514 9.04-3.514 12.555 0 3.444 3.443 3.444 9.109 0 12.623-.646.574-1.363 1.148-2.08 1.507l5.667 5.738Z" clip-rule="evenodd"/><path fill="#F60" fill-rule="evenodd" d="m32.211 33.423.072.072-2.009 1.076a4.718 4.718 0 0 0-1.65 1.22c-2.798 2.868-2.798 7.387-.072 10.184l.072.072.072.072c2.798 2.653 7.174 2.582 9.972-.144.43-.502.86-1.076 1.22-1.721l1.076-2.008.071.071 1.507 1.578 5.739 5.81.143.072 5.811-5.882h-.071v-.072h-.072l-.072-.071h-.072v-.072h-.071l-.072-.072h-.072l-.072-.072h-.071v-.071h-.072l-.072-.072h-.072v-.072h-.071v-.071h-.072l-.072-.072h-.072v-.072h-.071v-.072h-.072l-.072-.071h-.071v-.072h-.072v-.072h-.072v-.071h-.072v-.072h-.071l-.072-.072v-.072h-.072l-.072-.071-.071-.072-.072-.072-.144-.143c-.071-.072-.071-.144-.143-.144l-.144-.215-.143-.143-.144-.215-.143-.144-.143-.215-.144-.143-.072-.216-.143-.143-.072-.215-.143-.215-.072-.216-.072-.143-.143-.215-.072-.215-.072-.216-.072-.215-.071-.143-.072-.215-.072-.216v-.215l-.072-.215-.071-.215v-.215l-.072-.215v-.431l-.072-.215V35.36l.072-.215v-.43l.072-.216v-.143l.072-.215.071-.215v-.216l.072-.215.072-.215.072-.215.071-.215.072-.215.072-.144.143-.215.072-.215.072-.215.143-.144.072-.215.143-.215.072-.144.144-.215.143-.143.144-.215.143-.144.143-.215.144-.144.143-.143.144-.215.215-.144c0-.071.072-.071.144-.143l.143-.144.215-.143c0-.072.072-.143.144-.143l.215-.144.143-.143.216-.144.143-.072c.072-.071.144-.071.215-.143l.144-.072.215-.143.215-.072.144-.143.215-.072.215-.072.216-.072c.071 0 .143-.071.215-.071l.143-.072.215-.072.216-.071.215-.072h.215l.215-.072h.215l.216-.072h.215l.215-.071H59.257l.215.071h.216l.215.072h.215l.215.072h.215c.072.072.144.072.216.072l.143.071.215.072.216.072.215.072.215.071.144.072.215.072.215.143.215.072.144.143.215.072.215.143.144.072.215.144.143.143.215.144.144.143.215.143.144.144.143.143.144.144.071.072.072.071.072.072.072.072.071.071v.072h.072v.072h.072v.072h.072v.071l.071.072.072.072v.072h.072v.071h.072v.072l.071.072.072.071v.072h.072v.144h.072v.071h.071v.072l.072.072v.071l.072.072v.072h.072v.143h.071v.072l.072.072 5.81-5.882-5.81-5.881-1.65-1.65 2.009-1.076a4.718 4.718 0 0 0 1.65-1.219 7.316 7.316 0 0 0 0-10.256c-2.726-2.798-7.318-2.798-10.044 0A7.721 7.721 0 0 0 56.89 7.53l-1.076 2.008-1.579-1.65-5.81-5.88-5.883 5.88c.789.431 1.435.933 2.08 1.579a9.004 9.004 0 0 1 0 12.623 8.707 8.707 0 0 1-12.483 0 8.848 8.848 0 0 1-1.578-2.08l-5.81 5.881 5.81 5.882 1.65 1.65Z" clip-rule="evenodd"/><path fill="#F60" fill-rule="evenodd" d="m73.246 27.112-5.882 5.881-1.579 1.65-1.076-2.008c-.287-.646-.717-1.22-1.22-1.722a7.145 7.145 0 0 0-10.114 0c-2.798 2.797-2.798 7.388 0 10.185a9.335 9.335 0 0 0 1.65 1.29l2.008 1.077-1.578 1.65-5.883 5.88.072.073 5.668 5.738c.43-.79.932-1.507 1.578-2.08a8.707 8.707 0 0 1 12.483 0h.071v.071a9.004 9.004 0 0 1 0 12.624c-.574.645-1.291 1.147-2.08 1.578l5.882 5.881 5.811-5.881 1.579-1.65 1.076 2.008c.358.646.789 1.22 1.291 1.65a7.02 7.02 0 0 0 10.115 0c2.798-2.797 2.798-7.388 0-10.185-.502-.502-1.076-.932-1.65-1.22l-2.008-1.075 1.578-1.65 5.81-5.881-5.81-5.882c-.43.718-.933 1.435-1.507 2.08-3.443 3.443-9.039 3.443-12.554 0-3.444-3.514-3.444-9.18 0-12.623.646-.645 1.363-1.148 2.08-1.578l-5.81-5.881Z" clip-rule="evenodd"/><path fill="#F60" fill-rule="evenodd" d="M68.225 55.945h-.072l-.144-.144-.071-.143-.144-.144-.143-.071-.144-.144-.143-.071-.144-.144-.143-.072-.144-.143-.215-.072-.143-.072-.144-.071-.143-.144-.144-.071-.143-.072-.215-.072h-.144l-.143-.072-.216-.071-.143-.072h-.144l-.143-.072-.215-.072h-.144l-.215-.071h-.502l-.144-.072H62.63l-.215.072h-.502l-.144.072h-.215l-.144.071-.143.072h-.215l-.144.072-.143.071-.144.072h-.215l-.143.072-.144.072-.143.071-.216.144-.143.071-.144.072-.143.072-.144.143-.143.072-.144.144-.143.071-.143.144-.144.072-.143.143-.144.143-.143.144-.072.072-.072.071v.072h-.072v.072h-.071v.071h-.072v.072h-.072v.072h-.072v.072l-.071.071v.072h-.072v.072h-.072v.072l-.072.071v.072h-.071v.072l-.072.071v.072h-.072v.144h-.072v.071l-.071.072v.072l-.072.071-1.076 2.009-1.578-1.578-5.74-5.81-5.739 5.881.072.072h.072v.072h.143v.072h.072l.072.071h.072v.072h.071v.072h.072l.072.072h.071v.071h.072l.072.072.072.072h.071v.072h.072l.072.071.072.072.071.072h.072v.071h.072v.072h.072v.072h.071v.072h.072l.072.071v.072h.072l.071.072.072.072c3.444 3.514 3.444 9.18 0 12.623a8.707 8.707 0 0 1-12.483 0l-.143-.072v-.072h-.072v-.071h-.072v-.072h-.072v-.072h-.071v-.071h-.072v-.072h-.072v-.072l-.071-.072-.072-.071v-.072h-.072v-.072h-.072v-.072h-.071v-.071l-.072-.072v-.072h-.072v-.071l-.072-.072-.071-.072v-.072l-.072-.071v-.072h-.072v-.072l-.072-.072v-.071h-.071v-.072l-.072-.072v-.071l-5.811 5.81 5.668 5.737 1.65 1.65-2.01 1.076a7.721 7.721 0 0 0-1.721 1.29l-.072.073-.143.143-.144.143-.071.144-.144.143-.072.144-.143.143-.072.144-.143.143-.072.215-.072.144-.072.143-.071.144-.072.143-.072.215-.072.144-.071.143-.072.144-.072.215-.072.143v.144l-.071.215v.143l-.072.215v.144l-.072.143v.502l-.071.216v.717l.071.143v.502l.072.215v.144l.072.143v.216l.072.143v.143l.071.216.072.143.072.144.072.215.071.143.072.144.072.143.071.215.072.144.072.143.072.144.143.143.072.143.143.144.072.143.144.144.071.143.144.144.143.143.072.144.143.143.144.072.143.143.144.144.143.071.144.144.143.072.144.143.143.072.144.072.143.143.216.072.143.071.143.072.144.072.143.072.216.071.143.072.144.072h.215l.143.071h.144l.215.072.143.072h.359l.144.072h1.721l.144-.072h.359l.143-.072c.215 0 .359-.072.502-.143.144 0 .215-.072.359-.072l.144-.072.143-.072.215-.071.144-.072.143-.072.144-.071.143-.072.215-.143c.072 0 .144-.072.287-.144l.144-.143.143-.072.144-.144.143-.071.287-.287.144-.072.071-.143h.072v-.072h.072v-.072h.072v-.072h.071v-.071l.072-.072.072-.072v-.072h.072v-.071h.071v-.072h.072v-.072l.072-.071v-.072h.072v-.072l.071-.072v-.071h.072v-.072h.072v-.143h.071v-.144h.072v-.072l.072-.071v-.072l.072-.072 1.076-2.008.502.574 1.076 1.076 5.811 5.881 5.883-5.881h-.072v-.072h-.144v-.072h-.071l-.072-.072h-.072l-.072-.071h-.071V93.6h-.072v-.072h-.144v-.072h-.071l-.072-.071h-.072v-.072h-.071v-.072h-.072l-.072-.071h-.072v-.072l-.071-.072h-.072v-.072h-.072v-.071h-.072l-.071-.072-.072-.072-.072-.071h-.072v-.072h-.071v-.072h-.072v-.072h-.072v-.071l-.143-.144-.144-.143-.143-.215-.144-.144-.143-.215a.154.154 0 0 1-.144-.144l-.143-.215-.144-.143-.071-.215-.144-.144-.143-.215-.072-.215-.072-.144-.143-.215-.072-.215-.072-.215-.072-.215-.071-.144c0-.071-.072-.143-.072-.215l-.072-.215-.072-.215-.071-.215v-.216l-.072-.215v-.215l-.072-.215v-.43l-.071-.216v-.86c0-.215 0-.43.071-.646v-.215c0-.072 0-.215.072-.358v-.216l.072-.215v-.215l.072-.215.071-.215.072-.216.072-.215.072-.215.071-.143.072-.215.072-.216.143-.215.072-.143.072-.215.143-.216.144-.143.071-.215.144-.215.143-.144.144-.215.143-.143.144-.216.143-.143c0-.072.072-.144.144-.144l.143-.215.144-.143.215-.144.143-.143.144-.144.215-.143.144-.144.215-.143.143-.143.215-.072.216-.144.143-.071.215-.144.216-.071.143-.072.215-.144.216-.071.215-.072.143-.072.215-.072.216-.071.215-.072h.215l.215-.072.216-.071h.215l.143-.072h.431l.215-.072H58.97l.215.072h.431l.215.072h.215l.216.071.143.072h.215l.216.072.215.072.215.071.215.072.215.072.144.071.215.144.215.072.144.071.215.144.215.072.144.143.215.072.143.143.216.144.143.143.215.143.144.144.215.143c0 .072.072.072.144.144l.143.143c.646.646 1.148 1.363 1.578 2.08l5.811-5.881-5.81-5.882-1.65-1.578 2.008-1.147h.072l.071-.072h.072l.072-.072h.072v-.071h.071l.072-.072h.072v-.072h.072l.071-.071h.072v-.072h.072v-.072h.072l.071-.072h.072v-.071h.072v-.072h.072v-.072h.071l.072-.072.072-.071.072-.072.071-.072h.072v-.071l.143-.144.144-.143.072-.144.143-.143.144-.144.071-.143.144-.144.072-.143.071-.143.144-.144.072-.143.071-.144.072-.215.072-.143.072-.144.071-.143.072-.215.072-.144.072-.143v-.216l.071-.143.072-.143v-.216l.072-.143v-.359l.071-.143v-1.722l-.071-.215v-.286l-.072-.216v-.143l-.072-.215-.072-.144v-.143l-.071-.215-.072-.144-.072-.143-.072-.144-.071-.215-.072-.143-.072-.144-.071-.143-.072-.144-.144-.215-.071-.143-.072-.144-.144-.143-.071-.144-.144-.143-.143-.144-.072-.143-.144-.143-.071-.072Z" clip-rule="evenodd"/><path fill="#F60" d="M324.05 26.61v-7.03h24.75c8.824 0 13.2 4.448 13.2 13.27v19.509c0 8.822-4.376 13.269-13.2 13.269h-15.568c-8.752 0-13.128-4.16-13.128-12.48v-1.722c0-8.176 4.376-12.336 13.128-12.336h17.72v7.029h-17.72c-4.089 0-6.169 1.793-6.169 5.307v1.722c0 3.657 2.08 5.45 6.169 5.45H348.8c4.161 0 6.17-2.08 6.17-6.24V32.85c0-4.16-2.009-6.24-6.17-6.24h-24.75ZM293.13 58.599v7.029h-18.509c-8.753 0-13.129-4.447-13.129-13.27V32.85c0-8.822 4.376-13.27 13.129-13.27h18.509v7.03h-18.509c-4.09 0-6.17 2.08-6.17 6.24v19.509c0 4.16 2.08 6.24 6.17 6.24h18.509ZM218.448 26.61v-7.03h24.751c8.824 0 13.2 4.448 13.2 13.27v19.509c0 8.822-4.376 13.269-13.2 13.269h-15.568c-8.752 0-13.128-4.16-13.128-12.48v-1.722c0-8.176 4.376-12.336 13.128-12.336h17.72v7.029h-17.72c-4.089 0-6.17 1.793-6.17 5.307v1.722c0 3.657 2.081 5.45 6.17 5.45h15.568c4.161 0 6.169-2.08 6.169-6.24V32.85c0-4.16-2.008-6.24-6.169-6.24h-24.751ZM175.476 65.628h-9.039l19.37-23.024-19.37-23.023h9.039l14.994 18.433 14.922-18.433h8.967l-19.37 23.023 19.37 23.024h-8.967L190.47 47.123l-14.994 18.505Z"/><path fill="#F60" d="M162.778 58.599v7.029h-24.894c-8.752 0-13.128-4.447-13.128-13.27V32.85c0-8.822 4.376-13.27 13.128-13.27h15.568c8.824 0 13.272 4.16 13.272 12.337v1.865c0 8.248-4.448 12.337-13.272 12.337h-17.72v-7.03h17.72c4.161 0 6.313-1.72 6.313-5.307v-1.865c0-3.514-2.152-5.307-6.313-5.307h-15.568c-4.089 0-6.169 2.08-6.169 6.24v19.509c0 4.16 2.08 6.24 6.169 6.24h24.894ZM297.506 19.652h3.73V0h6.959v19.652h8.178v7.03h-8.178v25.82c0 4.16 2.08 6.312 6.241 6.312h3.3v7.029h-3.3c-8.824 0-13.2-4.447-13.2-13.34V26.68h-3.73v-7.029Z"/><path fill="#4D4D4D" fill-rule="evenodd" d="M158.689 104c-1.507 0-2.798-.359-3.946-1.076-1.148-.645-2.008-1.65-2.654-2.94-.646-1.292-.933-2.726-.933-4.376v-.645c0-1.578.287-3.013.933-4.304.574-1.29 1.435-2.295 2.583-3.012 1.147-.717 2.51-1.076 4.017-1.076 1.363 0 2.583.215 3.587.645a7.471 7.471 0 0 1 2.583 1.865l.071 4.017h-2.367l-.574-2.94a4.076 4.076 0 0 0-1.291-.862 4.804 4.804 0 0 0-1.866-.358c-.932 0-1.721.287-2.439.86a4.972 4.972 0 0 0-1.578 2.152c-.359.861-.574 1.865-.574 3.013v.645c0 1.22.144 2.295.502 3.156.359.933.933 1.65 1.579 2.152.645.43 1.434.717 2.367.717 1.076 0 1.937-.287 2.583-.861.717-.573 1.147-1.362 1.291-2.367h2.726l.072.072c-.072 1.004-.359 1.937-.861 2.726-.574.86-1.291 1.506-2.224 2.08-1.004.502-2.152.717-3.587.717Zm15.568 0c-1.507 0-2.87-.359-4.018-1.076-1.076-.717-1.937-1.721-2.583-3.012-.645-1.291-.932-2.797-.932-4.447v-.359c0-1.65.287-3.156.932-4.447.646-1.29 1.507-2.295 2.583-3.012 1.148-.717 2.511-1.076 4.018-1.076 1.578 0 2.869.359 4.017 1.076 1.148.717 2.009 1.721 2.583 3.012.645 1.291.932 2.797.932 4.447v.359c0 1.65-.287 3.156-.932 4.447-.574 1.291-1.435 2.295-2.583 3.012-1.076.717-2.439 1.076-4.017 1.076Zm0-2.367a4.186 4.186 0 0 0 2.51-.789 4.795 4.795 0 0 0 1.435-2.223c.359-.933.502-2.009.502-3.156v-.359c0-1.147-.143-2.223-.502-3.156a4.418 4.418 0 0 0-1.506-2.223c-.646-.502-1.435-.79-2.439-.79-1.005 0-1.794.288-2.44.79a4.418 4.418 0 0 0-1.506 2.223c-.359.933-.502 2.009-.502 3.156v.359c0 1.147.143 2.223.502 3.156.287.932.789 1.649 1.506 2.223.646.502 1.507.789 2.44.789Zm8.465 2.08v-2.008l2.582-.431V89.296l-2.582-.43v-2.008h5.309l.215 2.51c.574-.86 1.219-1.578 2.08-2.08s1.794-.717 2.87-.717c1.865 0 3.228.502 4.233 1.578 1.004 1.076 1.506 2.725 1.506 4.949v8.176l2.511.431v2.008h-8.107v-2.008l2.511-.431v-8.176c0-1.435-.287-2.51-.861-3.156-.574-.574-1.506-.932-2.654-.932-.933 0-1.65.215-2.367.645a4.996 4.996 0 0 0-1.65 1.793v9.826l2.582.431v2.008h-8.178Zm24.822.215c-1.22 0-2.224-.358-2.941-1.076-.79-.717-1.148-1.864-1.148-3.514V89.153H200.8v-2.295h2.655V82.77h3.085v4.088h3.658v2.295h-3.658v10.185c0 .861.143 1.434.502 1.793.287.43.717.574 1.291.574.359 0 .717 0 1.22-.072.43-.072.789-.143 1.004-.215l.43 2.008a8.135 8.135 0 0 1-1.65.359c-.645.143-1.219.143-1.793.143Zm9.398.072c-1.722 0-3.085-.43-3.946-1.291-.932-.789-1.363-2.008-1.363-3.586 0-1.076.287-2.008.861-2.797.574-.79 1.435-1.435 2.511-1.865 1.148-.43 2.439-.646 4.017-.646h3.013v-1.65c0-1.004-.358-1.793-.932-2.366-.646-.574-1.507-.861-2.655-.861-.645 0-1.291.072-1.793.287-.502.143-1.004.43-1.435.717l-.287 2.367h-2.367v-3.873c.717-.646 1.578-1.076 2.582-1.435a12.78 12.78 0 0 1 3.372-.43c2.081 0 3.659.43 4.807 1.434 1.148 1.005 1.793 2.367 1.793 4.16v9.396l1.65.144v2.008h-4.376c-.143-.502-.215-.861-.287-1.219 0-.359-.072-.717-.072-1.148-.574.789-1.363 1.435-2.224 1.937-.86.502-1.865.717-2.869.717Zm.502-2.51c1.004 0 1.937-.287 2.798-.789.789-.431 1.435-1.076 1.793-1.722v-3.084h-3.156c-1.363 0-2.439.359-3.157 1.004-.717.718-1.076 1.435-1.076 2.296 0 .717.287 1.29.718 1.649.43.43 1.147.646 2.08.646ZM236.67 104c-1.076 0-2.08-.215-2.869-.574a5.55 5.55 0 0 1-2.009-1.865l-.287 2.152h-2.654V81.837l-2.511-.43v-2.008h5.595v9.467c.503-.789 1.148-1.363 1.937-1.721.79-.43 1.722-.574 2.798-.574 1.363 0 2.511.359 3.516 1.076 1.004.789 1.721 1.865 2.295 3.227.502 1.291.789 2.941.789 4.734v.287c0 1.65-.287 3.084-.789 4.304-.574 1.147-1.291 2.151-2.295 2.797-1.005.717-2.153 1.004-3.516 1.004Zm-.789-2.439c1.435 0 2.511-.573 3.228-1.578.718-1.004 1.077-2.367 1.077-4.088v-.287c0-1.29-.216-2.438-.503-3.443a4.681 4.681 0 0 0-1.434-2.295c-.646-.574-1.435-.86-2.368-.86-1.004 0-1.793.286-2.439.717-.646.43-1.148 1.076-1.507 1.865v7.387c.359.79.861 1.435 1.579 1.865.645.43 1.435.717 2.367.717Zm8.107 2.152v-2.008l2.511-.431V89.296l-2.511-.43v-2.008h5.596v14.416l2.582.431v2.008h-8.178Zm2.367-21.015v-3.3h3.229v3.3h-3.229Zm6.313 21.015v-2.008l2.511-.431V81.837l-2.511-.43v-2.008h5.596v21.875l2.511.431v2.008h-8.107Zm8.753 0v-2.008l2.582-.431V89.296l-2.582-.43v-2.008h5.595v14.416l2.583.431v2.008h-8.178Zm2.439-21.015v-3.3h3.228v3.3h-3.228ZM276.916 104c-1.434 0-2.582-.287-3.587-1.004-.932-.646-1.721-1.65-2.223-2.797-.503-1.22-.79-2.654-.79-4.304v-.287c0-1.793.287-3.443.79-4.734.502-1.362 1.291-2.438 2.295-3.227.933-.717 2.152-1.076 3.515-1.076 1.005 0 1.866.144 2.655.502.717.43 1.363.933 1.937 1.65v-6.886l-2.511-.43v-2.008h5.596v21.875l2.511.431v2.008h-5.166l-.287-2.008a4.63 4.63 0 0 1-2.008 1.721c-.79.431-1.722.574-2.727.574Zm.718-2.439c.932 0 1.722-.215 2.367-.645.574-.431 1.076-1.004 1.507-1.793v-7.818c-.359-.646-.933-1.22-1.507-1.65-.645-.43-1.435-.645-2.295-.645-1.005 0-1.794.286-2.44.86-.645.574-1.076 1.291-1.363 2.295-.358 1.005-.502 2.152-.502 3.443v.287c0 1.722.359 3.084 1.076 4.088.646 1.005 1.722 1.578 3.157 1.578ZM293.273 104c-1.793 0-3.085-.43-4.017-1.291-.933-.789-1.363-2.008-1.363-3.586 0-1.076.287-2.008.861-2.797.573-.79 1.434-1.435 2.582-1.865 1.076-.43 2.439-.646 3.946-.646h3.013v-1.65c0-1.004-.287-1.793-.933-2.366-.645-.574-1.506-.861-2.582-.861-.718 0-1.363.072-1.866.287-.502.143-1.004.43-1.434.717l-.287 2.367h-2.368v-3.873c.718-.646 1.65-1.076 2.655-1.435 1.004-.287 2.08-.43 3.3-.43 2.08 0 3.658.43 4.806 1.434 1.22 1.005 1.794 2.367 1.794 4.16v9.396l1.65.144v2.008h-4.376c-.144-.502-.216-.861-.216-1.219-.071-.359-.143-.717-.143-1.148a6.494 6.494 0 0 1-2.224 1.937c-.861.502-1.793.717-2.798.717Zm.431-2.51c1.004 0 1.937-.287 2.797-.789a4.18 4.18 0 0 0 1.794-1.722v-3.084h-3.085c-1.435 0-2.511.359-3.228 1.004-.718.718-1.005 1.435-1.005 2.296 0 .717.216 1.29.646 1.649.431.43 1.148.646 2.081.646Zm16.93 2.51c-1.435 0-2.582-.287-3.587-1.004-.932-.646-1.721-1.65-2.224-2.797-.502-1.22-.789-2.654-.789-4.304v-.287c0-1.793.287-3.443.789-4.734.503-1.362 1.292-2.438 2.296-3.227.933-.717 2.152-1.076 3.515-1.076 1.005 0 1.865.144 2.655.502.717.43 1.363.933 1.937 1.65v-6.886l-2.511-.43v-2.008H318.31v21.875l2.511.431v2.008h-5.165l-.287-2.008a4.627 4.627 0 0 1-2.009 1.721c-.789.431-1.721.574-2.726.574Zm.718-2.439c.932 0 1.721-.215 2.367-.645.574-.431 1.076-1.004 1.507-1.793v-7.818c-.359-.646-.933-1.22-1.507-1.65-.646-.43-1.435-.645-2.296-.645-1.004 0-1.793.286-2.439.86-.645.574-1.076 1.291-1.363 2.295-.359 1.005-.502 2.152-.502 3.443v.287c0 1.722.359 3.084 1.076 4.088.646 1.005 1.722 1.578 3.157 1.578ZM329.143 104c-1.578 0-2.941-.359-4.089-1.076a6.25 6.25 0 0 1-2.654-2.94c-.646-1.292-.933-2.726-.933-4.376v-.717c0-1.578.287-3.012.933-4.232.717-1.29 1.578-2.295 2.654-3.012a6.383 6.383 0 0 1 3.587-1.076c1.507 0 2.798.287 3.802.932 1.005.574 1.794 1.507 2.296 2.582.574 1.148.789 2.44.789 4.017v1.865h-10.904l-.072.072c.072 1.147.215 2.08.574 2.869.358.86.861 1.506 1.578 2.008.646.502 1.435.717 2.439.717 1.005 0 1.937-.143 2.726-.43.789-.287 1.435-.718 2.009-1.22l1.22 1.937c-.646.645-1.435 1.076-2.44 1.506-.932.431-2.152.574-3.515.574Zm-4.448-10.4h7.748v-.43c0-.79-.143-1.507-.43-2.152-.215-.646-.646-1.148-1.22-1.506-.574-.359-1.291-.574-2.152-.574-.646 0-1.291.215-1.865.645-.574.359-1.005.933-1.363 1.578-.359.718-.646 1.507-.718 2.367v.072Z" clip-rule="evenodd"/></g><defs><clipPath id="a"><path fill="#fff" d="M0 0h362v104H0z"/></clipPath></defs></svg>